<?xml version="1.0" encoding="utf-8"?>
<!-- Generator: Adobe Illustrator 27.5.0, SVG Export Plug-In . SVG Version: 6.00 Build 0)  -->
<svg version="1.1" xmlns="http://www.w3.org/2000/svg" xmlns:xlink="http://www.w3.org/1999/xlink" x="0px" y="0px"
	 viewBox="0 0 3710 3710" style="enable-background:new 0 0 3710 3710;" xml:space="preserve">
<g id="Background">
	<g>
		<g>
			<rect style="fill:#FFFFFF;" width="3710" height="3710"/>
		</g>
	</g>
</g>
<g id="Illustration">
	<g>
		<linearGradient id="SVGID_1_" gradientUnits="userSpaceOnUse" x1="3576.3284" y1="3998.9839" x2="1141.4845" y2="975.0606">
			<stop  offset="0" style="stop-color:#B37CFF"/>
			<stop  offset="1" style="stop-color:#F895E7"/>
		</linearGradient>
		<path style="opacity:0.3;fill:url(#SVGID_1_);" d="M2906.487,2806.458c-55.927,58.878-108.845,96.848-150.655,126.846
			c-491.462,352.63-1072.992,249.84-1196.584,224.737c-182.506-37.068-535.286-108.719-790.339-408.657
			c-385.875-453.781-325.788-1168.7-26.478-1640.628c54.749-86.324,343.947-565.44,931.74-642.275
			c355.726-46.5,770.389,47.285,1070.676,298.866C3375.177,1293.438,3330.305,2360.276,2906.487,2806.458z"/>
		<g>
			<g>
				<path style="fill:#FFFFFF;" d="M2964.922,778.705c-0.933,0.802-2.234,1.145-3.511,0.799c-4.918-1.332-9.878-2.563-14.748-3.663
					c-2.071-0.466-3.368-2.521-2.901-4.59c0.472-2.069,2.525-3.369,4.593-2.901c4.974,1.12,10.042,2.377,15.064,3.737
					c2.047,0.555,3.259,2.665,2.703,4.711C2965.915,777.57,2965.485,778.221,2964.922,778.705z"/>
				<path style="fill:#FFFFFF;" d="M3108.528,1412.428c-6.801,5.849-13.889,11.51-21.072,16.822
					c-1.704,1.263-4.11,0.903-5.371-0.803c-1.259-1.703-0.937-4.092,0.803-5.371c8.265-6.119,16.371-12.689,24.129-19.521
					c0.013-0.011,0.024-0.021,0.036-0.031c1.593-1.37,3.993-1.208,5.388,0.374c1.401,1.591,1.249,4.017-0.343,5.421
					C3110.911,1410.364,3109.722,1411.401,3108.528,1412.428z M3147.81,1373.062c-1.413,1.215-3.541,1.253-4.999,0.004
					c-1.612-1.38-1.8-3.805-0.421-5.417c6.697-7.823,13.146-16.036,19.171-24.41c1.231-1.742,3.638-2.115,5.362-0.876
					c1.719,1.237,2.114,3.64,0.874,5.359c-6.151,8.55-12.736,16.935-19.572,24.922
					C3148.096,1372.796,3147.957,1372.936,3147.81,1373.062z M3194.028,1305.1c-1.163,1-2.864,1.246-4.302,0.484
					c-1.875-0.989-2.593-3.316-1.599-5.19c4.827-9.129,9.311-18.556,13.329-28.019c0.822-1.953,3.083-2.864,5.036-2.035
					c1.952,0.829,2.863,3.084,2.035,5.038c-4.101,9.663-8.681,19.286-13.61,28.607
					C3194.685,1304.42,3194.381,1304.796,3194.028,1305.1z M3224.075,1228.632c-0.932,0.801-2.227,1.144-3.502,0.801
					c-2.048-0.549-3.263-2.656-2.716-4.705c2.664-9.935,4.929-20.122,6.731-30.28c0.37-2.09,2.361-3.485,4.453-3.112
					c2.089,0.37,3.482,2.363,3.111,4.454c-1.841,10.375-4.154,20.781-6.874,30.928
					C3225.069,1227.49,3224.639,1228.147,3224.075,1228.632z M3236.266,1147.404c-0.707,0.608-1.637,0.962-2.644,0.924
					c-2.12-0.077-3.776-1.859-3.699-3.978c0.377-10.284,0.314-20.724-0.185-31.026c-0.1-2.121,1.54-3.917,3.65-4.025
					c2.12-0.101,3.92,1.532,4.023,3.65c0.511,10.524,0.574,21.182,0.191,31.684
					C3237.562,1145.745,3237.05,1146.73,3236.266,1147.404z M3230.1,1065.468c-0.494,0.425-1.102,0.73-1.789,0.861
					c-2.084,0.392-4.093-0.977-4.489-3.062c-1.917-10.142-4.285-20.311-7.044-30.224c-0.568-2.044,0.626-4.165,2.67-4.73
					c2.043-0.57,4.162,0.625,4.73,2.67c2.815,10.122,5.235,20.504,7.194,30.857
					C3231.635,1063.238,3231.107,1064.602,3230.1,1065.468z M3205.978,986.909c-0.286,0.246-0.614,0.454-0.977,0.613
					c-1.947,0.843-4.207-0.048-5.052-1.993c-4.106-9.457-8.67-18.851-13.563-27.917c-1.009-1.869-0.314-4.188,1.558-5.204
					c1.867-1.007,4.194-0.312,5.204,1.555c4.997,9.259,9.656,18.849,13.846,28.505
					C3207.681,984.049,3207.219,985.841,3205.978,986.909z M3165.013,915.656c-0.074,0.063-0.15,0.124-0.23,0.183
					c-1.709,1.257-4.115,0.891-5.372-0.818c-5.396-7.332-11.135-14.543-17.059-21.431c-0.79-0.919-1.587-1.837-2.387-2.747
					c-1.401-1.595-1.244-4.021,0.35-5.421c0.011-0.01,0.021-0.018,0.031-0.027c1.594-1.371,3.998-1.207,5.39,0.376
					c0.82,0.933,1.631,1.868,2.441,2.809c6.051,7.036,11.912,14.4,17.424,21.89C3166.797,912.097,3166.522,914.358,3165.013,915.656
					z M3109.16,855.377c-1.416,1.218-3.548,1.25-5.006-0.004c-7.793-6.711-15.99-13.183-24.361-19.238
					c-1.719-1.242-2.106-3.646-0.863-5.364c1.259-1.711,3.644-2.105,5.364-0.862c8.549,6.184,16.917,12.791,24.871,19.641
					c1.61,1.386,1.79,3.81,0.406,5.42C3109.441,855.115,3109.305,855.252,3109.16,855.377z M3041.325,808.965
					c-1.165,1.002-2.87,1.246-4.308,0.479c-9.125-4.857-18.542-9.366-27.993-13.408c-1.95-0.832-2.856-3.09-2.022-5.04
					c0.837-1.952,3.089-2.86,5.042-2.022c9.65,4.124,19.265,8.729,28.579,13.686c1.874,0.996,2.584,3.324,1.587,5.196
					C3041.981,808.292,3041.678,808.662,3041.325,808.965z"/>
				<path style="fill:#FFFFFF;" d="M3044.547,1456.541c-0.205,0.176-0.429,0.335-0.678,0.469c-4.586,2.485-9.226,4.877-13.79,7.11
					c-1.906,0.931-4.206,0.144-5.138-1.761c-0.935-1.907-0.132-4.2,1.761-5.141c4.468-2.185,9.013-4.53,13.507-6.966
					c1.865-1.01,4.198-0.315,5.206,1.548C3046.294,1453.421,3045.888,1455.388,3044.547,1456.541z"/>
			</g>
			<g>
				<path style="fill:#FFFFFF;" d="M2757.858,1484.035c-0.977,0.84-2.351,1.17-3.67,0.752c-4.877-1.549-9.822-3.234-14.69-5.009
					c-1.994-0.725-3.022-2.933-2.295-4.924c0.733-1.996,2.931-3.021,4.923-2.295c4.769,1.737,9.61,3.387,14.388,4.903
					c2.021,0.642,3.139,2.802,2.498,4.823C2758.789,1482.992,2758.38,1483.586,2757.858,1484.035z"/>
				<path style="fill:#FFFFFF;" d="M2697.509,1458.725c-1.163,1-2.863,1.245-4.302,0.483c-9.129-4.825-18.189-10.109-26.933-15.705
					c-1.787-1.145-2.309-3.521-1.165-5.307c1.154-1.774,3.52-2.31,5.307-1.165c8.565,5.483,17.44,10.66,26.382,15.387
					c1.875,0.99,2.59,3.314,1.601,5.189C2698.167,1458.045,2697.863,1458.42,2697.509,1458.725z M2630.539,1413.385
					c-1.408,1.211-3.527,1.252-4.988,0.01c-7.903-6.715-15.605-13.841-22.892-21.175c-1.495-1.505-1.486-3.937,0.021-5.43
					c1.522-1.518,3.936-1.49,5.433,0.018c7.133,7.18,14.674,14.157,22.415,20.735c1.615,1.372,1.814,3.798,0.44,5.416
					C2630.834,1413.112,2630.69,1413.255,2630.539,1413.385z M2575.087,1354.513c-0.064,0.055-0.132,0.109-0.2,0.162
					c-1.695,1.274-4.104,0.932-5.379-0.762c-6.215-8.271-12.157-16.915-17.662-25.693c-1.125-1.798-0.579-4.168,1.215-5.295
					c1.795-1.128,4.166-0.584,5.293,1.212c5.391,8.598,11.21,17.061,17.295,25.157
					C2576.873,1350.923,2576.608,1353.204,2575.087,1354.513z M2533.939,1284.896c-0.273,0.235-0.582,0.436-0.929,0.591
					c-1.933,0.871-4.206,0.011-5.079-1.925c-4.252-9.434-8.155-19.17-11.604-28.939c-0.706-2,0.338-4.2,2.344-4.9
					c2.002-0.707,4.194,0.341,4.901,2.341c3.378,9.568,7.201,19.104,11.365,28.343
					C2535.65,1281.995,2535.196,1283.815,2533.939,1284.896z M2509.004,1207.981c-0.478,0.411-1.063,0.712-1.725,0.845
					c-2.076,0.431-4.109-0.903-4.539-2.983c-2.096-10.137-3.788-20.487-5.032-30.766c-0.255-2.106,1.242-4.017,3.353-4.274
					c2.107-0.254,4.021,1.247,4.277,3.353c1.216,10.067,2.874,20.203,4.928,30.133
					C2510.558,1205.705,2510.028,1207.1,2509.004,1207.981z M2501.397,1127.488c-0.687,0.591-1.586,0.943-2.563,0.929
					c-2.123-0.035-3.814-1.782-3.781-3.904c0.162-10.36,0.769-20.828,1.797-31.118c0.216-2.105,2.098-3.65,4.205-3.438
					c2.112,0.212,3.652,2.094,3.441,4.205c-1.008,10.074-1.601,20.327-1.761,30.474
					C2502.717,1125.778,2502.2,1126.797,2501.397,1127.488z M2511.571,1047.307c-0.906,0.779-2.159,1.125-3.409,0.825
					c-2.062-0.498-3.33-2.574-2.831-4.635c2.432-10.073,5.322-20.158,8.59-29.975c0.676-2.006,2.848-3.097,4.858-2.431
					c2.014,0.673,3.1,2.845,2.431,4.861c-3.2,9.611-6.03,19.486-8.412,29.346C2512.6,1046.11,2512.16,1046.801,2511.571,1047.307z
					 M2539.13,971.307c-1.134,0.975-2.782,1.235-4.206,0.535c-1.903-0.941-2.683-3.244-1.743-5.145
					c4.569-9.253,9.597-18.457,14.95-27.35c1.085-1.833,3.457-2.404,5.271-1.312c1.817,1.094,2.404,3.454,1.31,5.271
					c-5.243,8.715-10.17,17.727-14.645,26.791C2539.833,970.573,2539.509,970.98,2539.13,971.307z M2582.597,903.127
					c-1.377,1.184-3.441,1.258-4.908,0.08c-1.653-1.329-1.916-3.745-0.589-5.401c6.505-8.099,13.413-15.994,20.53-23.47
					c1.486-1.52,3.897-1.595,5.431-0.134c1.537,1.464,1.597,3.896,0.134,5.431c-6.969,7.32-13.734,15.053-20.104,22.986
					C2582.941,902.807,2582.774,902.975,2582.597,903.127z M2664.806,827.846c-0.12,0.103-0.244,0.2-0.379,0.287
					c-8.441,5.632-16.741,11.687-24.662,18c-1.658,1.322-4.074,1.05-5.397-0.608c-1.323-1.662-1.102-4.08,0.611-5.399
					c8.09-6.448,16.564-12.633,25.189-18.383c1.764-1.176,4.148-0.703,5.326,1.064
					C2666.582,824.439,2666.255,826.599,2664.806,827.846z"/>
				<path style="fill:#FFFFFF;" d="M2722.447,796.464c-0.286,0.246-0.614,0.454-0.977,0.613c-4.667,2.024-9.313,4.155-13.81,6.336
					c-1.909,0.924-4.206,0.125-5.131-1.781c-0.924-1.912-0.137-4.207,1.781-5.134c4.594-2.224,9.339-4.4,14.102-6.468
					c1.947-0.843,4.207,0.048,5.052,1.993C2724.153,793.606,2723.688,795.396,2722.447,796.464z"/>
			</g>
			<g>
				
					<linearGradient id="SVGID_00000085970637559807759670000001192343976106819232_" gradientUnits="userSpaceOnUse" x1="-295.8062" y1="2306.3167" x2="758.127" y2="2735.1577" gradientTransform="matrix(0.7582 -0.6521 0.6521 0.7582 1202.682 -679.4986)">
					<stop  offset="0" style="stop-color:#B37CFF"/>
					<stop  offset="1" style="stop-color:#F895E7"/>
				</linearGradient>
				<path style="fill:url(#SVGID_00000085970637559807759670000001192343976106819232_);" d="M2787.449,859.603
					c-1.852,0.331-3.292,1.8-3.583,3.66l-8.308,53.043c-23.028,9.919-44.64,23.582-63.833,40.827l-51.615-14.655
					c-1.811-0.515-3.747,0.177-4.824,1.721l-36.826,52.832c-1.076,1.545-1.054,3.602,0.053,5.121l31.611,43.355
					c-9.537,23.976-14.879,48.979-16.216,74.017l-46.891,26.151c-1.643,0.917-2.524,2.775-2.194,4.627l11.319,63.397
					c0.331,1.855,1.801,3.293,3.66,3.583l53.043,8.309c9.919,23.028,23.583,44.639,40.828,63.833l-14.656,51.615
					c-0.515,1.81,0.177,3.747,1.72,4.823l52.833,36.826c1.544,1.076,3.6,1.055,5.121-0.055l43.355-31.611
					c23.976,9.538,48.979,14.879,74.016,16.217l26.151,46.891c0.917,1.643,2.776,2.524,4.628,2.193l63.397-11.318
					c1.853-0.33,3.292-1.801,3.583-3.66l8.309-53.042c23.028-9.919,44.64-23.582,63.833-40.827l51.615,14.656
					c1.81,0.514,3.747-0.177,4.823-1.721l36.827-52.833c1.076-1.543,1.053-3.6-0.055-5.121l-31.612-43.354
					c9.539-23.975,14.879-48.981,16.217-74.018l46.89-26.15c1.645-0.916,2.525-2.776,2.194-4.628l-11.318-63.397
					c-0.331-1.853-1.801-3.292-3.659-3.583l-53.042-8.309c-9.919-23.027-23.583-44.639-40.829-63.832l14.656-51.616
					c0.514-1.809-0.177-3.747-1.721-4.822l-52.832-36.826c-1.544-1.076-3.601-1.054-5.121,0.054l-43.355,31.611
					c-23.976-9.538-48.979-14.877-74.017-16.216l-26.151-46.89c-0.916-1.644-2.774-2.525-4.628-2.195L2787.449,859.603z"/>
				<path style="fill:#FFFFFF;" d="M2909.971,1179.992c-4.528,3.894-9.64,7.158-15.235,9.684
					c-15.324,6.916-32.423,7.452-48.151,1.505c-15.727-5.943-28.196-17.657-35.114-32.983c-6.918-15.326-7.452-32.426-1.506-48.153
					c5.944-15.725,17.657-28.199,32.983-35.116c15.325-6.917,32.427-7.451,48.154-1.502c15.727,5.943,28.196,17.657,35.114,32.983
					c6.917,15.326,7.452,32.426,1.506,48.153C2923.948,1164.548,2917.845,1173.22,2909.971,1179.992z M2835.246,1093.344
					c-6.433,5.533-11.416,12.618-14.5,20.779l0,0c-4.858,12.846-4.422,26.815,1.23,39.335c5.649,12.518,15.836,22.088,28.684,26.945
					c12.848,4.857,26.818,4.419,39.337-1.231c12.524-5.645,22.092-15.834,26.945-28.687c4.858-12.846,4.422-26.815-1.23-39.335
					c-5.648-12.519-15.835-22.088-28.684-26.945c-12.848-4.857-26.82-4.422-39.339,1.229
					C2843.121,1087.497,2838.945,1090.163,2835.246,1093.344z M2815.356,1112.084l0.028-0.025L2815.356,1112.084z"/>
				<path style="fill:#FFFFFF;" d="M2974.313,1255.809c-54.419,46.803-135.729,52.925-197.269,10.03
					c-11.357-7.915-21.378-17.039-30.017-27.08c-46.814-54.417-52.94-135.739-10.043-197.287c0.772-1.104,1.558-2.201,2.356-3.289
					c5.383-7.326,11.363-14.186,17.834-20.454c0.756-0.734,1.518-1.459,2.288-2.175l7.854,8.435
					c-7.734,7.201-14.76,15.302-20.877,24.076c-0.059,0.081-0.116,0.164-0.173,0.248c-46.966,67.671-30.238,160.952,37.365,208.072
					c67.687,47.177,161.128,30.495,208.321-37.194c39.829-57.143,34.14-132.652-9.324-183.177
					c-8.021-9.324-17.325-17.794-27.868-25.143c-22.253-15.51-48.243-24.689-75.155-26.539l0.79-11.496
					c28.994,1.994,56.987,11.875,80.952,28.579c11.356,7.917,21.379,17.039,30.016,27.082
					c46.814,54.417,52.94,135.739,10.044,197.286C2993.488,1237.141,2984.356,1247.171,2974.313,1255.809z"/>
			</g>
		</g>
		<g>
			<g>
				<path style="fill:#FFFFFF;" d="M2661.586,498.229c-0.561,0.482-1.343,0.688-2.111,0.48c-2.956-0.801-5.937-1.54-8.864-2.202
					c-1.244-0.28-2.024-1.515-1.744-2.759c0.284-1.243,1.518-2.025,2.76-1.744c2.989,0.673,6.036,1.428,9.054,2.246
					c1.231,0.333,1.959,1.601,1.625,2.831C2662.183,497.546,2661.925,497.938,2661.586,498.229z"/>
				<path style="fill:#FFFFFF;" d="M2747.898,879.116c-4.088,3.516-8.348,6.918-12.665,10.11c-1.024,0.759-2.47,0.543-3.229-0.483
					c-0.757-1.023-0.563-2.46,0.483-3.228c4.968-3.677,9.84-7.627,14.502-11.732c0.008-0.007,0.014-0.013,0.021-0.018
					c0.957-0.823,2.4-0.726,3.238,0.224c0.842,0.956,0.75,2.414-0.206,3.258C2749.33,877.875,2748.616,878.499,2747.898,879.116z
					 M2771.508,855.456c-0.849,0.731-2.128,0.753-3.004,0.003c-0.969-0.829-1.082-2.287-0.253-3.256
					c4.025-4.702,7.901-9.638,11.522-14.671c0.74-1.047,2.187-1.271,3.223-0.526c1.033,0.744,1.27,2.188,0.525,3.221
					c-3.697,5.139-7.655,10.179-11.763,14.979C2771.68,855.296,2771.596,855.38,2771.508,855.456z M2799.286,814.608
					c-0.699,0.601-1.721,0.749-2.585,0.291c-1.127-0.595-1.558-1.993-0.961-3.12c2.901-5.487,5.596-11.153,8.011-16.84
					c0.494-1.174,1.853-1.721,3.027-1.223c1.173,0.498,1.72,1.854,1.223,3.028c-2.465,5.808-5.218,11.592-8.18,17.194
					C2799.681,814.2,2799.498,814.426,2799.286,814.608z M2817.345,768.649c-0.56,0.482-1.339,0.688-2.105,0.481
					c-1.231-0.33-1.961-1.596-1.632-2.828c1.601-5.971,2.963-12.094,4.046-18.199c0.222-1.256,1.419-2.095,2.676-1.871
					c1.256,0.222,2.093,1.42,1.87,2.677c-1.106,6.236-2.497,12.49-4.132,18.589C2817.943,767.963,2817.684,768.357,2817.345,768.649
					z M2824.673,719.828c-0.425,0.365-0.984,0.578-1.589,0.555c-1.274-0.046-2.269-1.117-2.223-2.391
					c0.227-6.181,0.189-12.456-0.111-18.648c-0.06-1.275,0.925-2.354,2.194-2.419c1.274-0.061,2.356,0.92,2.418,2.194
					c0.307,6.325,0.345,12.731,0.115,19.043C2825.451,718.831,2825.144,719.423,2824.673,719.828z M2820.967,670.582
					c-0.297,0.255-0.662,0.439-1.075,0.517c-1.253,0.236-2.46-0.587-2.698-1.84c-1.152-6.096-2.576-12.208-4.234-18.165
					c-0.342-1.229,0.376-2.503,1.605-2.843c1.228-0.343,2.502,0.376,2.843,1.605c1.692,6.083,3.146,12.323,4.323,18.546
					C2821.889,669.242,2821.572,670.062,2820.967,670.582z M2806.469,623.366c-0.172,0.148-0.369,0.273-0.587,0.368
					c-1.17,0.507-2.529-0.029-3.036-1.198c-2.468-5.684-5.211-11.33-8.152-16.779c-0.606-1.123-0.189-2.517,0.936-3.128
					c1.122-0.605,2.521-0.188,3.128,0.935c3.004,5.565,5.803,11.329,8.322,17.132
					C2807.492,621.646,2807.215,622.724,2806.469,623.366z M2781.847,580.54c-0.044,0.038-0.09,0.075-0.138,0.11
					c-1.027,0.756-2.473,0.536-3.229-0.492c-3.243-4.407-6.693-8.741-10.253-12.881c-0.475-0.552-0.954-1.104-1.435-1.651
					c-0.842-0.959-0.748-2.417,0.21-3.258c0.007-0.006,0.013-0.011,0.019-0.016c0.958-0.824,2.403-0.726,3.24,0.226
					c0.493,0.561,0.98,1.122,1.467,1.688c3.637,4.229,7.159,8.655,10.472,13.156C2782.92,578.402,2782.754,579.76,2781.847,580.54z
					 M2748.278,544.311c-0.851,0.732-2.133,0.752-3.009-0.003c-4.684-4.033-9.61-7.924-14.642-11.563
					c-1.033-0.747-1.266-2.191-0.518-3.224c0.757-1.029,2.19-1.265,3.224-0.518c5.138,3.717,10.167,7.688,14.948,11.805
					c0.968,0.833,1.075,2.29,0.244,3.258C2748.447,544.153,2748.365,544.236,2748.278,544.311z M2707.507,516.416
					c-0.7,0.602-1.725,0.749-2.589,0.288c-5.485-2.919-11.144-5.629-16.825-8.059c-1.172-0.5-1.717-1.857-1.215-3.029
					c0.503-1.173,1.857-1.719,3.031-1.215c5.8,2.479,11.579,5.246,17.177,8.226c1.126,0.599,1.553,1.998,0.954,3.123
					C2707.901,516.011,2707.719,516.233,2707.507,516.416z"/>
				<path style="fill:#FFFFFF;" d="M2709.443,905.63c-0.123,0.106-0.258,0.201-0.407,0.282c-2.757,1.494-5.545,2.931-8.288,4.273
					c-1.145,0.56-2.528,0.086-3.088-1.058c-0.562-1.146-0.079-2.525,1.058-3.09c2.686-1.313,5.417-2.723,8.118-4.187
					c1.121-0.607,2.523-0.189,3.129,0.931C2710.493,903.754,2710.249,904.936,2709.443,905.63z"/>
			</g>
			<g>
				<path style="fill:#FFFFFF;" d="M2537.134,922.154c-0.587,0.505-1.413,0.704-2.206,0.452c-2.931-0.931-5.903-1.944-8.829-3.01
					c-1.198-0.436-1.816-1.763-1.379-2.959c0.44-1.2,1.762-1.815,2.959-1.379c2.866,1.044,5.776,2.036,8.647,2.947
					c1.215,0.386,1.887,1.684,1.501,2.899C2537.694,921.527,2537.448,921.885,2537.134,922.154z"/>
				<path style="fill:#FFFFFF;" d="M2500.863,906.942c-0.699,0.601-1.721,0.748-2.586,0.291c-5.487-2.9-10.932-6.076-16.188-9.439
					c-1.074-0.688-1.388-2.116-0.7-3.189c0.693-1.066,2.115-1.388,3.189-0.7c5.148,3.295,10.482,6.407,15.857,9.248
					c1.127,0.595,1.557,1.992,0.962,3.119C2501.258,906.534,2501.075,906.759,2500.863,906.942z M2460.612,879.691
					c-0.846,0.728-2.12,0.753-2.998,0.006c-4.75-4.036-9.379-8.319-13.759-12.727c-0.898-0.904-0.893-2.366,0.012-3.264
					c0.915-0.912,2.365-0.895,3.265,0.011c4.287,4.315,8.82,8.509,13.472,12.462c0.971,0.824,1.091,2.283,0.265,3.255
					C2460.789,879.527,2460.702,879.613,2460.612,879.691z M2427.283,844.307c-0.039,0.033-0.08,0.065-0.12,0.097
					c-1.019,0.766-2.467,0.56-3.233-0.458c-3.736-4.971-7.307-10.166-10.615-15.442c-0.677-1.081-0.348-2.505,0.73-3.183
					c1.079-0.678,2.504-0.351,3.181,0.729c3.24,5.168,6.738,10.254,10.395,15.12C2428.357,842.15,2428.198,843.521,2427.283,844.307
					z M2402.552,802.465c-0.164,0.141-0.35,0.262-0.558,0.355c-1.162,0.523-2.528,0.007-3.053-1.157
					c-2.556-5.67-4.902-11.521-6.975-17.393c-0.424-1.202,0.204-2.524,1.409-2.945c1.203-0.425,2.521,0.205,2.945,1.407
					c2.03,5.751,4.328,11.482,6.831,17.035C2403.58,800.722,2403.308,801.816,2402.552,802.465z M2387.565,756.237
					c-0.287,0.247-0.639,0.428-1.037,0.508c-1.248,0.259-2.47-0.543-2.728-1.793c-1.26-6.093-2.277-12.313-3.025-18.492
					c-0.153-1.266,0.747-2.414,2.015-2.569c1.266-0.153,2.417,0.749,2.57,2.015c0.731,6.051,1.728,12.143,2.962,18.111
					C2388.499,754.869,2388.181,755.707,2387.565,756.237z M2382.993,707.858c-0.413,0.355-0.953,0.567-1.541,0.558
					c-1.276-0.021-2.292-1.071-2.272-2.346c0.097-6.227,0.462-12.518,1.08-18.703c0.13-1.265,1.261-2.194,2.527-2.067
					c1.27,0.128,2.195,1.259,2.068,2.527c-0.606,6.055-0.963,12.217-1.058,18.316
					C2383.787,706.83,2383.476,707.443,2382.993,707.858z M2389.108,659.667c-0.544,0.468-1.298,0.676-2.049,0.496
					c-1.239-0.299-2.001-1.547-1.702-2.786c1.462-6.054,3.198-12.115,5.163-18.016c0.406-1.206,1.712-1.862,2.92-1.461
					c1.21,0.404,1.863,1.71,1.461,2.921c-1.924,5.776-3.624,11.711-5.056,17.638
					C2389.726,658.948,2389.462,659.362,2389.108,659.667z M2405.672,613.988c-0.681,0.586-1.672,0.742-2.528,0.321
					c-1.144-0.566-1.613-1.949-1.048-3.092c2.746-5.562,5.768-11.093,8.986-16.439c0.652-1.102,2.077-1.445,3.168-0.789
					c1.092,0.658,1.445,2.076,0.787,3.168c-3.151,5.238-6.113,10.654-8.802,16.102
					C2406.094,613.547,2405.9,613.792,2405.672,613.988z M2431.797,573.01c-0.827,0.712-2.068,0.756-2.95,0.048
					c-0.993-0.799-1.151-2.251-0.354-3.246c3.91-4.867,8.062-9.613,12.339-14.106c0.893-0.914,2.342-0.959,3.264-0.081
					c0.924,0.88,0.96,2.342,0.081,3.264c-4.189,4.4-8.255,9.047-12.083,13.815C2432.003,572.818,2431.903,572.919,2431.797,573.01z
					 M2481.207,527.763c-0.072,0.062-0.147,0.12-0.228,0.172c-5.073,3.385-10.062,7.024-14.823,10.819
					c-0.997,0.795-2.449,0.631-3.244-0.366c-0.795-0.999-0.662-2.452,0.367-3.245c4.862-3.876,9.956-7.593,15.139-11.049
					c1.06-0.707,2.493-0.422,3.201,0.64C2482.274,525.716,2482.078,527.015,2481.207,527.763z"/>
				<path style="fill:#FFFFFF;" d="M2515.851,508.902c-0.172,0.148-0.369,0.273-0.587,0.368c-2.805,1.217-5.597,2.497-8.3,3.808
					c-1.147,0.556-2.528,0.075-3.084-1.071c-0.555-1.149-0.083-2.528,1.071-3.086c2.761-1.337,5.613-2.645,8.476-3.888
					c1.17-0.507,2.529,0.029,3.036,1.198C2516.876,507.185,2516.597,508.26,2515.851,508.902z"/>
			</g>
			<g>
				
					<linearGradient id="SVGID_00000009551141399187463400000017326400854072122021_" gradientUnits="userSpaceOnUse" x1="-71.1933" y1="1875.2377" x2="562.2539" y2="2132.9846" gradientTransform="matrix(0.7582 -0.6521 0.6521 0.7582 1202.682 -679.4986)">
					<stop  offset="0" style="stop-color:#B37CFF"/>
					<stop  offset="1" style="stop-color:#F895E7"/>
				</linearGradient>
				<path style="fill:url(#SVGID_00000009551141399187463400000017326400854072122021_);" d="M2554.919,546.851
					c-1.113,0.199-1.979,1.082-2.154,2.199l-4.994,31.881c-13.84,5.962-26.83,14.173-38.366,24.539l-31.022-8.808
					c-1.088-0.309-2.252,0.107-2.899,1.034l-22.134,31.753c-0.647,0.929-0.633,2.165,0.032,3.078l18.999,26.057
					c-5.732,14.41-8.942,29.438-9.746,44.487l-28.183,15.717c-0.988,0.551-1.517,1.668-1.319,2.781l6.803,38.104
					c0.199,1.115,1.083,1.979,2.2,2.154l31.881,4.994c5.961,13.84,14.174,26.829,24.539,38.365l-8.809,31.023
					c-0.309,1.088,0.106,2.252,1.034,2.899l31.754,22.133c0.928,0.647,2.164,0.634,3.078-0.033l26.058-18.999
					c14.41,5.733,29.438,8.943,44.486,9.747l15.717,28.183c0.551,0.987,1.668,1.517,2.781,1.318l38.104-6.803
					c1.114-0.199,1.979-1.082,2.154-2.2l4.994-31.88c13.84-5.961,26.83-14.174,38.366-24.538l31.022,8.809
					c1.088,0.309,2.252-0.107,2.899-1.034l22.134-31.755c0.647-0.927,0.633-2.164-0.033-3.078l-19-26.057
					c5.733-14.41,8.943-29.439,9.747-44.487l28.183-15.717c0.988-0.55,1.518-1.668,1.319-2.782l-6.803-38.104
					c-0.199-1.113-1.082-1.979-2.199-2.154l-31.88-4.994c-5.962-13.84-14.174-26.829-24.539-38.365l8.809-31.023
					c0.309-1.087-0.106-2.252-1.034-2.898l-31.754-22.133c-0.928-0.647-2.164-0.634-3.078,0.032l-26.058,18.999
					c-14.41-5.732-29.438-8.942-44.486-9.747l-15.718-28.183c-0.551-0.988-1.667-1.518-2.781-1.319L2554.919,546.851z"/>
				<path style="fill:#FFFFFF;" d="M2628.559,739.415c-2.721,2.341-5.794,4.302-9.156,5.82c-9.21,4.157-19.487,4.479-28.94,0.904
					c-9.452-3.572-16.947-10.612-21.104-19.824c-4.158-9.212-4.479-19.489-0.905-28.941c3.573-9.451,10.612-16.948,19.824-21.106
					c9.211-4.157,19.49-4.478,28.942-0.903c9.452,3.572,16.947,10.612,21.104,19.824c4.157,9.211,4.479,19.489,0.905,28.941
					C2636.959,730.132,2633.292,735.345,2628.559,739.415z M2583.647,687.337c-3.866,3.325-6.861,7.584-8.715,12.489l0,0
					c-2.92,7.721-2.658,16.117,0.74,23.642c3.395,7.524,9.518,13.276,17.24,16.195c7.722,2.919,16.118,2.656,23.643-0.74
					c7.527-3.393,13.278-9.517,16.195-17.242c2.92-7.721,2.658-16.117-0.74-23.642c-3.395-7.524-9.518-13.276-17.24-16.195
					c-7.722-2.919-16.12-2.658-23.644,0.738C2588.38,683.822,2585.87,685.425,2583.647,687.337z M2571.692,698.6l0.017-0.015
					L2571.692,698.6z"/>
				<path style="fill:#FFFFFF;" d="M2667.23,784.983c-32.707,28.13-81.578,31.81-118.565,6.028
					c-6.826-4.757-12.849-10.241-18.041-16.276c-28.137-32.706-31.819-81.583-6.036-118.576c0.464-0.664,0.936-1.323,1.416-1.977
					c3.236-4.403,6.83-8.526,10.719-12.294c0.455-0.441,0.913-0.877,1.375-1.307l4.72,5.07c-4.649,4.328-8.871,9.197-12.548,14.47
					c-0.036,0.049-0.07,0.099-0.104,0.149c-28.228,40.672-18.174,96.737,22.458,125.058c40.682,28.355,96.843,18.328,125.208-22.355
					c23.938-34.345,20.519-79.728-5.604-110.095c-4.821-5.604-10.413-10.695-16.75-15.112
					c-13.375-9.322-28.996-14.839-45.171-15.951l0.475-6.909c17.427,1.198,34.251,7.137,48.655,17.177
					c6.825,4.758,12.849,10.241,18.04,16.277c28.137,32.706,31.819,81.583,6.037,118.575
					C2678.755,773.763,2673.267,779.792,2667.23,784.983z"/>
			</g>
		</g>
		<g>
			
				<linearGradient id="SVGID_00000039115376345086574220000014705298534210627460_" gradientUnits="userSpaceOnUse" x1="1873.2665" y1="1315.6639" x2="1863.1666" y2="3356.1301">
				<stop  offset="0" style="stop-color:#2B3582"/>
				<stop  offset="1" style="stop-color:#150E42"/>
			</linearGradient>
			<path style="fill:url(#SVGID_00000039115376345086574220000014705298534210627460_);" d="M658.21,2836.469
				c0,23.922,19.591,43.494,43.536,43.494h2354.237c23.944,0,43.536-19.572,43.536-43.494l19.589-1352.915
				c0-23.921-28.183-70.622-79.835-67.113l-2300.82-59.533c-30.044-0.777-59.092,10.786-80.367,31.992
				c-21.275,21.206-32.916,50.199-32.206,80.215L658.21,2836.469z"/>
			
				<linearGradient id="SVGID_00000089544446976058901870000013129302705869896338_" gradientUnits="userSpaceOnUse" x1="2807.1868" y1="1295.4521" x2="779.2412" y2="3075.9424">
				<stop  offset="0" style="stop-color:#53D8FF"/>
				<stop  offset="1" style="stop-color:#3840F7"/>
			</linearGradient>
			<path style="fill:url(#SVGID_00000089544446976058901870000013129302705869896338_);" d="M701.191,2794.742
				c0,22.653,18.534,41.188,41.188,41.188h2256.83c22.653,0,41.188-18.535,41.188-41.188l18.486-1228.189
				c-2.177-73.91-66.975-100.473-106.254-98.905l-2205.127-59.16c-21.107-0.566-41.514,7.566-56.463,22.477
				c-14.949,14.911-23.171,35.318-22.642,56.425L701.191,2794.742z"/>
			<g>
				<path style="fill:#FFFFFF;" d="M3016.01,2211.266c-0.03,0-0.06,0-0.09,0c-3.335-0.048-5.998-2.79-5.947-6.127l1.461-99.604
					c0.048-3.302,2.741-5.947,6.031-5.947c0.03,0,0.06,0,0.09,0c3.335,0.048,5.998,2.79,5.947,6.127l-1.461,99.604
					C3021.993,2208.621,3019.3,2211.266,3016.01,2211.266z"/>
				<path style="fill:#FFFFFF;" d="M3019.595,1967.184c-0.03,0-0.06,0-0.09,0c-3.335-0.048-5.998-2.796-5.947-6.127l5.6-381.486
					c-0.105-22.66-6.983-40.752-20.446-53.652c-25.13-24.076-65.027-22.847-66.708-22.768l-704.807-18.9
					c-3.332-0.084-5.962-2.862-5.871-6.194c0.087-3.332,2.648-6.17,6.197-5.868l704.388,18.9
					c4.383-0.259,46.862-0.994,75.152,26.112c15.915,15.249,24.045,36.258,24.166,62.43l-5.603,381.606
					C3025.578,1964.54,3022.885,1967.184,3019.595,1967.184z"/>
			</g>
			
				<linearGradient id="SVGID_00000167374042858642586370000001830329613437399447_" gradientUnits="userSpaceOnUse" x1="1855.7677" y1="2995.2783" x2="1840.5839" y2="1760.2845">
				<stop  offset="0" style="stop-color:#2B3582"/>
				<stop  offset="1" style="stop-color:#150E42"/>
			</linearGradient>
			<path style="fill:url(#SVGID_00000167374042858642586370000001830329613437399447_);" d="M472.878,2992.271h2764.245
				c3.109,0,5.654-2.544,5.654-5.654v-107.564c0-3.11-2.544-5.654-5.654-5.654H472.878c-3.109,0-5.654,2.544-5.654,5.654v107.564
				C467.224,2989.727,469.768,2992.271,472.878,2992.271z"/>
		</g>
		<g>
			
				<linearGradient id="SVGID_00000114035249773170650520000018366677567284190642_" gradientUnits="userSpaceOnUse" x1="2939.2175" y1="132.4455" x2="1323.0072" y2="2970.9116">
				<stop  offset="0" style="stop-color:#CB236D"/>
				<stop  offset="1" style="stop-color:#4C246D"/>
			</linearGradient>
			<path style="fill:url(#SVGID_00000114035249773170650520000018366677567284190642_);" d="M1158.117,902.248
				c0-82.835,67.151-149.986,149.986-149.986H2583.59c70.368,0,128.391,55.145,131.969,125.422l94.149,1849.218
				c2.8,54.994-40.491,101.382-95.547,102.383l-1461.87,26.569c-51.732,0.94-94.176-40.738-94.176-92.479V902.248z"/>
			
				<linearGradient id="SVGID_00000053510387631215340130000001332585036101179294_" gradientUnits="userSpaceOnUse" x1="877.2688" y1="2415.6743" x2="2206.7991" y2="3260.3186">
				<stop  offset="0" style="stop-color:#A737D5"/>
				<stop  offset="1" style="stop-color:#EF497A"/>
			</linearGradient>
			<path style="fill:url(#SVGID_00000053510387631215340130000001332585036101179294_);" d="M1465.948,2824.417
				c-0.015,0-0.031,0-0.046,0l-163.575-2.114c-54.696-0.709-99.194-45.787-99.194-100.484v-246.967c0-1.93,1.564-3.492,3.492-3.492
				c1.929,0,3.492,1.562,3.492,3.492v246.967c0,50.895,41.405,92.839,92.3,93.5l163.573,2.115c1.929,0.024,3.472,1.61,3.448,3.536
				C1469.413,2822.882,1467.855,2824.417,1465.948,2824.417z"/>
			
				<linearGradient id="SVGID_00000153682131935771089660000015990055286390343586_" gradientUnits="userSpaceOnUse" x1="988.8657" y1="2240.0112" x2="2318.3979" y2="3084.6567">
				<stop  offset="0" style="stop-color:#A737D5"/>
				<stop  offset="1" style="stop-color:#EF497A"/>
			</linearGradient>
			<path style="fill:url(#SVGID_00000153682131935771089660000015990055286390343586_);" d="M1206.626,2401.844
				c-1.928,0-3.492-1.562-3.492-3.492v-39.996c0-1.93,1.564-3.492,3.492-3.492c1.929,0,3.492,1.562,3.492,3.492v39.996
				C1210.118,2400.281,1208.554,2401.844,1206.626,2401.844z"/>
			<g>
				
					<linearGradient id="SVGID_00000127734687072183294760000011676296059078606000_" gradientUnits="userSpaceOnUse" x1="881.4763" y1="3576.9834" x2="2391.6257" y2="1076.9059">
					<stop  offset="0" style="stop-color:#A737D5"/>
					<stop  offset="1" style="stop-color:#EF497A"/>
				</linearGradient>
				<path style="fill:url(#SVGID_00000127734687072183294760000011676296059078606000_);" d="M1262.612,780.726
					c-0.156-26.502,23.151-47.014,49.414-43.453c174.179,23.62,773.137,96.674,1268.347,58.66
					c22.584-1.734,42.182,15.377,43.385,37.995l98.72,1857.461c1.354,25.469-18.095,47.248-43.555,48.755
					c-208.276,12.326-1066.023,59.973-1371.969,27.928c-18.621-1.951-32.755-17.628-32.865-36.35L1262.612,780.726z"/>
				<path style="opacity:0.6;fill:#FFFFFF;" d="M1283.129,827.272c-0.15-25.504,22.279-45.244,47.553-41.816
					c167.62,22.731,744.024,93.034,1220.587,56.45c21.733-1.668,40.594,14.798,41.75,36.565l95.003,1787.518
					c1.303,24.51-17.413,45.469-41.915,46.919c-200.433,11.861-1025.882,57.714-1320.307,26.876
					c-17.919-1.877-31.521-16.964-31.627-34.981L1283.129,827.272z"/>
				<path style="opacity:0.78;fill:#FFFFFF;" d="M1438.298,965.088l17.802,383.226c0.592,12.746,10.889,22.88,23.643,23.24
					c70.974,2.002,292.131,7.396,417.005,0.886c14.125-0.736,25.3-12.164,25.768-26.3c2.381-71.869,7.592-281.049-8.785-368.494
					c-2.646-14.125-14.786-24.475-29.149-24.978l-419.504-14.671C1449.952,937.469,1437.596,949.968,1438.298,965.088z"/>
				<g style="opacity:0.6;">
					<path style="fill:#FFFFFF;" d="M2487.835,998.447c8.22,0,14.776-5.785,14.569-12.856s-7.1-12.976-15.318-13.122l-460.018-8.198
						c-8.218-0.146-12.708,6.077-9.978,13.83l2.201,6.25c2.73,7.753,11.69,14.096,19.909,14.096H2487.835z"/>
				</g>
				<g style="opacity:0.6;">
					<path style="fill:#FFFFFF;" d="M2027.068,1035.713c-8.218-0.146-12.708,6.077-9.978,13.83l2.201,6.25
						c2.73,7.753,11.69,14.096,19.909,14.096h448.634c8.22,0,14.776-5.785,14.569-12.856s-7.1-12.976-15.318-13.122
						L2027.068,1035.713z"/>
				</g>
				<g style="opacity:0.6;">
					<path style="fill:#FFFFFF;" d="M2027.068,1108.194c-8.218-0.146-12.708,6.077-9.978,13.83l2.201,6.25
						c2.73,7.753,11.69,14.096,19.909,14.096h448.634c8.22,0,14.776-5.785,14.569-12.856s-7.1-12.976-15.318-13.122
						L2027.068,1108.194z"/>
				</g>
				<g style="opacity:0.6;">
					<path style="fill:#FFFFFF;" d="M2532.517,1491.91c8.22,0,14.563-5.785,14.096-12.856c-0.467-7.071-7.574-12.909-15.793-12.974
						l-1077.702-8.495c-8.219-0.065-10.755,5.143-5.635,11.573l8.806,11.059c5.12,6.43,16.035,11.691,24.254,11.691H2532.517z"/>
				</g>
				<g style="opacity:0.6;">
					<path style="fill:#FFFFFF;" d="M1453.118,1549.232c-8.219-0.065-10.755,5.143-5.635,11.574l8.806,11.059
						c5.12,6.43,16.035,11.691,24.254,11.691h1051.974c8.22,0,14.563-5.785,14.096-12.856s-7.574-12.909-15.793-12.974
						L1453.118,1549.232z"/>
				</g>
				<g>
					<path style="fill:#FFFFFF;" d="M1587.332,2016.22c-0.082,0-0.166,0-0.249,0l-90.956-0.873
						c-12.995-0.126-23.722-9.068-24.953-20.796l-7.995-76.316c-0.469-4.481,0.922-8.907,3.917-12.471
						c3.352-3.987,8.425-6.49,13.917-6.868l0,0c7.663-0.522,18.455-1.443,29.879-2.414c24.057-2.05,53.997-4.597,70.842-4.809
						c12.222-0.061,22.59,7.172,25.47,17.815c4.739,17.519,4.322,50.681,3.421,86.008
						C1610.333,2006.972,1599.907,2016.22,1587.332,2016.22z M1481.49,1905.866c-3.611,0.245-6.909,1.848-9.047,4.393
						c-1.765,2.097-2.587,4.672-2.317,7.247l7.995,76.316c0.859,8.198,8.63,14.449,18.075,14.541l90.956,0.873
						c0.06,0,0.121,0,0.182,0c8.814,0,16.112-6.21,16.31-13.917c0.887-34.792,1.311-67.394-3.182-84.009
						c-2.014-7.445-9.76-12.625-18.639-12.652c-16.594,0.208-46.394,2.745-70.337,4.785
						C1500.03,1904.417,1489.209,1905.338,1481.49,1905.866L1481.49,1905.866z"/>
					<path style="opacity:0.6;fill:#FFFFFF;" d="M1491.275,1913.742c19.108-1.306,60.638-5.523,80.334-5.768
						c8.346-0.104,15.666,4.938,17.623,12.175c3.802,14.056,3.298,42.072,2.638,67.931c-0.198,7.744-7.31,13.926-15.995,13.843
						l-72.686-0.698c-8.938-0.085-16.359-6.18-17.192-14.118l-6.39-60.986C1478.946,1919.813,1484.192,1914.227,1491.275,1913.742z"
						/>
					<g style="opacity:0.6;">
						<path style="fill:#FFFFFF;" d="M1667.222,1965.546c2.633,9.985,11.704,16.912,22.03,16.824l841.57-7.175
							c9.52-0.081,17.136-7.932,16.928-17.45c-0.202-9.254-7.74-16.662-16.996-16.704l-841.592-3.838
							C1674.307,1937.134,1663.433,1951.182,1667.222,1965.546z"/>
					</g>
					<path style="fill:#FFFFFF;" d="M1587.332,2211.163c-0.082,0-0.166,0-0.249,0l-90.956-0.873
						c-12.995-0.126-23.722-9.068-24.953-20.796l-7.995-76.316c-0.469-4.481,0.922-8.907,3.917-12.471
						c3.352-3.987,8.425-6.49,13.917-6.868l0,0c7.663-0.522,18.455-1.443,29.879-2.415c24.057-2.049,53.997-4.597,70.842-4.809
						c0.123,0,0.245-0.003,0.366-0.003c11.962,0,22.252,7.284,25.103,17.819c4.739,17.519,4.322,50.681,3.421,86.008
						C1610.333,2201.915,1599.907,2211.163,1587.332,2211.163z M1481.49,2100.809c-3.611,0.246-6.909,1.849-9.047,4.393
						c-1.765,2.097-2.587,4.672-2.317,7.247l7.995,76.316c0.859,8.198,8.63,14.449,18.075,14.542l90.956,0.873
						c0.06,0,0.121,0,0.182,0c8.814,0,16.112-6.21,16.31-13.917c0.887-34.792,1.311-67.395-3.182-84.01
						c-2.015-7.441-9.871-12.792-18.641-12.652c-16.593,0.208-46.392,2.745-70.336,4.785
						C1500.03,2099.36,1489.209,2100.281,1481.49,2100.809L1481.49,2100.809z"/>
					<path style="opacity:0.6;fill:#FFFFFF;" d="M1491.275,2108.686c19.108-1.306,60.638-5.522,80.334-5.768
						c8.346-0.104,15.666,4.938,17.623,12.175c3.802,14.056,3.298,42.073,2.638,67.931c-0.198,7.744-7.31,13.926-15.995,13.843
						l-72.686-0.698c-8.938-0.086-16.359-6.18-17.192-14.118l-6.39-60.986C1478.946,2114.757,1484.192,2109.17,1491.275,2108.686z"
						/>
					<g style="opacity:0.6;">
						<path style="fill:#FFFFFF;" d="M1667.222,2160.49c2.633,9.985,11.704,16.912,22.03,16.824l841.57-7.176
							c9.52-0.081,17.136-7.932,16.928-17.45c-0.202-9.254-7.74-16.662-16.996-16.704l-841.592-3.839
							C1674.307,2132.077,1663.433,2146.125,1667.222,2160.49z"/>
					</g>
					<path style="fill:#FFFFFF;" d="M1587.332,2406.106c-0.082,0-0.166,0-0.249,0l-90.956-0.873
						c-12.995-0.123-23.722-9.062-24.953-20.793l-7.995-76.315c-0.469-4.481,0.922-8.911,3.918-12.475
						c3.353-3.987,8.423-6.49,13.916-6.868l0,0c7.663-0.522,18.455-1.443,29.879-2.414c24.057-2.05,53.997-4.597,70.842-4.809
						c0.123,0,0.245-0.004,0.366-0.004c11.962,0,22.252,7.284,25.103,17.819c4.739,17.519,4.322,50.68,3.421,86.008
						C1610.333,2396.857,1599.907,2406.106,1587.332,2406.106z M1481.49,2295.752c-3.611,0.246-6.909,1.848-9.047,4.392
						c-1.765,2.097-2.587,4.672-2.317,7.25l7.995,76.315c0.859,8.198,8.63,14.449,18.073,14.538l90.958,0.873
						c0.06,0,0.121,0,0.182,0c8.814,0,16.112-6.21,16.31-13.917c0.887-34.792,1.311-67.395-3.182-84.009
						c-2.015-7.441-9.871-12.819-18.641-12.652c-16.593,0.208-46.392,2.745-70.336,4.785
						C1500.03,2294.303,1489.209,2295.223,1481.49,2295.752L1481.49,2295.752z"/>
					<path style="opacity:0.6;fill:#FFFFFF;" d="M1491.275,2303.629c19.108-1.306,60.638-5.522,80.334-5.768
						c8.346-0.104,15.666,4.938,17.623,12.175c3.802,14.056,3.298,42.073,2.638,67.931c-0.198,7.744-7.31,13.926-15.995,13.843
						l-72.686-0.698c-8.938-0.086-16.359-6.181-17.192-14.119l-6.39-60.986C1478.946,2309.699,1484.192,2304.113,1491.275,2303.629z
						"/>
					<g style="opacity:0.6;">
						<path style="fill:#FFFFFF;" d="M1667.222,2355.433c2.633,9.985,11.704,16.912,22.03,16.824l841.57-7.175
							c9.52-0.081,17.136-7.932,16.928-17.45c-0.202-9.254-7.74-16.662-16.996-16.704l-841.592-3.839
							C1674.307,2327.021,1663.433,2341.068,1667.222,2355.433z"/>
					</g>
					<path style="fill:#FFFFFF;" d="M1587.332,2601.049c-0.082,0-0.166,0-0.249,0l-90.956-0.873
						c-12.995-0.123-23.722-9.061-24.953-20.792l-7.995-76.316c-0.469-4.481,0.922-8.911,3.918-12.475
						c3.353-3.987,8.423-6.49,13.916-6.868l0,0c7.663-0.521,18.455-1.443,29.879-2.414c24.057-2.05,53.997-4.597,70.842-4.809
						c0.123,0,0.245-0.003,0.366-0.003c11.962,0,22.252,7.284,25.103,17.819c4.739,17.518,4.322,50.68,3.421,86.008
						C1610.333,2591.8,1599.907,2601.049,1587.332,2601.049z M1481.49,2490.695c-3.611,0.245-6.909,1.848-9.047,4.393
						c-1.765,2.097-2.587,4.672-2.317,7.25l7.995,76.316c0.859,8.198,8.63,14.449,18.073,14.538l90.958,0.873
						c0.06,0,0.121,0,0.182,0c8.814,0,16.112-6.21,16.31-13.917c0.887-34.792,1.311-67.394-3.182-84.009
						c-2.015-7.441-9.871-12.843-18.641-12.652c-16.593,0.208-46.392,2.745-70.336,4.785
						C1500.03,2489.246,1489.209,2490.166,1481.49,2490.695L1481.49,2490.695z"/>
					<path style="opacity:0.6;fill:#FFFFFF;" d="M1491.275,2498.572c19.108-1.306,60.638-5.523,80.334-5.768
						c8.346-0.104,15.666,4.938,17.623,12.175c3.802,14.056,3.298,42.073,2.638,67.931c-0.198,7.745-7.31,13.927-15.995,13.843
						l-72.686-0.698c-8.938-0.086-16.359-6.18-17.192-14.118l-6.39-60.986C1478.946,2504.643,1484.192,2499.056,1491.275,2498.572z"
						/>
					<g style="opacity:0.6;">
						<path style="fill:#FFFFFF;" d="M1667.222,2550.375L1667.222,2550.375c2.633,9.986,11.704,16.913,22.03,16.824l841.57-7.175
							c9.52-0.081,17.136-7.932,16.928-17.451c-0.202-9.254-7.74-16.662-16.996-16.704l-841.592-3.839
							C1674.307,2521.964,1663.433,2536.011,1667.222,2550.375z"/>
					</g>
					<path style="fill:#FFFFFF;" d="M1579.307,1846.598c-0.082,0-0.166,0-0.249,0l-90.956-0.873
						c-12.995-0.123-23.722-9.061-24.953-20.792l-7.995-76.316c-0.469-4.481,0.922-8.911,3.918-12.475
						c3.353-3.987,8.423-6.49,13.916-6.868l0,0c7.663-0.522,18.455-1.443,29.879-2.414c24.057-2.05,53.997-4.597,70.842-4.809
						c0.123,0,0.245-0.003,0.366-0.003c11.962,0,22.252,7.284,25.103,17.819c4.739,17.518,4.322,50.681,3.421,86.008
						C1602.308,1837.349,1591.882,1846.598,1579.307,1846.598z M1473.465,1736.244c-3.611,0.246-6.909,1.848-9.047,4.393
						c-1.765,2.097-2.587,4.672-2.317,7.25l7.995,76.316c0.859,8.198,8.63,14.449,18.073,14.538l90.958,0.873
						c0.06,0,0.121,0,0.182,0c8.814,0,16.112-6.21,16.31-13.917c0.887-34.792,1.311-67.394-3.182-84.009
						c-2.015-7.441-9.871-12.843-18.641-12.652c-16.593,0.208-46.392,2.745-70.336,4.785
						C1492.005,1734.795,1481.184,1735.715,1473.465,1736.244L1473.465,1736.244z"/>
					<path style="opacity:0.6;fill:#FFFFFF;" d="M1483.25,1744.121c19.108-1.306,60.638-5.523,80.334-5.768
						c8.346-0.104,15.666,4.938,17.623,12.175c3.802,14.056,3.298,42.073,2.638,67.931c-0.198,7.744-7.31,13.926-15.995,13.843
						l-72.686-0.698c-8.938-0.086-16.359-6.18-17.192-14.119l-6.39-60.986C1470.921,1750.192,1476.167,1744.605,1483.25,1744.121z"
						/>
					<g style="opacity:0.6;">
						<path style="fill:#FFFFFF;" d="M1659.197,1795.925L1659.197,1795.925c2.633,9.985,11.704,16.912,22.03,16.824l841.57-7.175
							c9.52-0.082,17.136-7.932,16.928-17.451c-0.202-9.254-7.74-16.662-16.996-16.704l-841.592-3.839
							C1666.282,1767.513,1655.408,1781.56,1659.197,1795.925z"/>
					</g>
				</g>
			</g>
			
				<linearGradient id="SVGID_00000019664156548180816600000015269906201521323662_" gradientUnits="userSpaceOnUse" x1="2167.2585" y1="309.7422" x2="1580.5793" y2="1081.5049">
				<stop  offset="0" style="stop-color:#CB236D"/>
				<stop  offset="1" style="stop-color:#4C246D"/>
			</linearGradient>
			<path style="fill:url(#SVGID_00000019664156548180816600000015269906201521323662_);" d="M2024.954,500.131
				c-46.073-32.052-86.133-31.417-114.334-23.096c-25.725,7.591-42.399,32.428-39.952,59.138l12.162,132.745l144.72,12.843
				C2027.549,681.761,2115.309,562.989,2024.954,500.131z M1961.311,607.224c-19.929,0-36.085-16.155-36.085-36.085
				s16.156-36.086,36.085-36.086c19.93,0,36.086,16.156,36.086,36.086S1981.241,607.224,1961.311,607.224z"/>
			<path style="fill:#FFFFFF;" d="M1897.286,613.078c-1.785,0-3.308-1.361-3.473-3.175l-1.937-21.14
				c-0.177-1.92,1.238-3.618,3.158-3.796c1.959-0.184,3.621,1.238,3.796,3.162l1.937,21.14c0.177,1.92-1.238,3.618-3.158,3.796
				C1897.499,613.075,1897.392,613.078,1897.286,613.078z M1893.49,571.65c-1.785,0-3.308-1.361-3.473-3.175l-1.472-16.049
				c-2.333-25.444,13.679-49.136,38.068-56.335c17.273-5.098,35.07-5.828,52.892-2.172c1.889,0.385,3.107,2.234,2.72,4.123
				c-0.387,1.886-2.218,3.093-4.122,2.718c-16.695-3.417-33.351-2.739-49.514,2.029c-21.2,6.258-35.118,26.866-33.09,49.003
				l1.471,16.049c0.177,1.92-1.238,3.619-3.158,3.796C1893.704,571.646,1893.596,571.65,1893.49,571.65z"/>
			
				<linearGradient id="SVGID_00000129923353107643498920000003714583673238385564_" gradientUnits="userSpaceOnUse" x1="2231.6125" y1="358.6614" x2="1644.9329" y2="1130.4248">
				<stop  offset="0" style="stop-color:#CB236D"/>
				<stop  offset="1" style="stop-color:#4C246D"/>
			</linearGradient>
			<path style="fill:url(#SVGID_00000129923353107643498920000003714583673238385564_);" d="M1685.313,754.705v-66.74
				c0-23.039,19.095-41.491,42.12-40.702l460.144,15.765c20.421,0.699,36.958,16.818,38.182,37.215l3.845,64.128L1685.313,754.705z"
				/>
			<path style="fill:#FFFFFF;" d="M1856.89,672.41h-19.788c-1.929,0-3.492-1.562-3.492-3.492c0-1.931,1.564-3.492,3.492-3.492
				h19.788c1.929,0,3.492,1.562,3.492,3.492C1860.382,670.848,1858.818,672.41,1856.89,672.41z"/>
			<path style="fill:#FFFFFF;" d="M1710.219,733.748c-1.928,0-3.492-1.562-3.492-3.492v-26.999c0-20.861,16.971-37.83,37.832-37.83
				h72.752c1.929,0,3.492,1.562,3.492,3.492c0,1.93-1.564,3.492-3.492,3.492h-72.752c-17.009,0-30.848,13.839-30.848,30.846v26.999
				C1713.712,732.186,1712.148,733.748,1710.219,733.748z"/>
			
				<linearGradient id="SVGID_00000073688522365527534990000001322901509683393679_" gradientUnits="userSpaceOnUse" x1="2157.6809" y1="405.8692" x2="1752.5911" y2="1149.6964">
				<stop  offset="0" style="stop-color:#A737D5"/>
				<stop  offset="1" style="stop-color:#EF497A"/>
			</linearGradient>
			<path style="fill:url(#SVGID_00000073688522365527534990000001322901509683393679_);" d="M1497.824,771.558
				c1.11-23.111,20.172-41.278,43.309-41.279l804.648-0.022c28.933-0.001,53.668,20.82,58.604,49.329l0.681,3.934
				c5.406,31.227-18.636,59.787-50.327,59.787h-825.521c-18.966,0-34.08-15.858-33.169-34.802L1497.824,771.558z"/>
		</g>
		<g>
			
				<linearGradient id="SVGID_00000034780802929850440350000017377590145133159601_" gradientUnits="userSpaceOnUse" x1="2018.9152" y1="325.0961" x2="1352.1285" y2="1678.873">
				<stop  offset="0" style="stop-color:#A737D5"/>
				<stop  offset="1" style="stop-color:#EF497A"/>
			</linearGradient>
			<path style="fill:url(#SVGID_00000034780802929850440350000017377590145133159601_);" d="M1595.232,1224.739v-16.344
				c0-14.943,2.294-27.977,6.888-39.108c4.588-11.125,12.958-23.074,25.099-35.839c11.516-12.608,18.871-22.49,22.064-29.652
				c3.187-7.156,4.786-16.262,4.786-27.317c0-10.115-2.335-18.363-7.004-24.749c-4.67-6.38-12.065-9.573-22.181-9.573
				c-16.811,0-34.479,5.995-53,17.978l-21.947-46.696c24.434-16.653,51.517-24.982,81.251-24.982
				c25.683,0,45.955,7.121,60.821,21.363c14.861,14.242,22.297,34.053,22.297,59.42c0,17.745-2.568,32.804-7.705,45.178
				c-5.137,12.375-15.801,27.282-31.987,44.711c-10.431,11.365-17.085,20.12-19.963,26.266c-2.884,6.152-4.319,14.517-4.319,25.099
				v14.242H1595.232z M1584.258,1302.721c0-12.293,3.304-21.749,9.923-28.368c6.613-6.613,16.227-9.923,28.835-9.923
				c12.76,0,22.414,3.385,28.951,10.156c6.537,6.771,9.806,16.151,9.806,28.134c0,11.831-3.35,21.171-10.04,28.017
				c-6.695,6.847-16.268,10.273-28.718,10.273c-12.456,0-22.029-3.35-28.718-10.04
				C1587.603,1324.283,1584.258,1314.862,1584.258,1302.721z"/>
		</g>
		<g>
			
				<linearGradient id="SVGID_00000085223314064748128620000009181087565240005261_" gradientUnits="userSpaceOnUse" x1="4319.5552" y1="3125.3481" x2="3810.3306" y2="3679.2422" gradientTransform="matrix(1 0 0 1 -3070.4624 0)">
				<stop  offset="0" style="stop-color:#2B3582"/>
				<stop  offset="1" style="stop-color:#150E42"/>
			</linearGradient>
			<path style="fill:url(#SVGID_00000085223314064748128620000009181087565240005261_);" d="M1088.126,3166.61
				c0,0-5.274,29.855-7.859,59.408c-1.01,11.55,7.894,21.578,19.479,22.061c39.356,1.639,123.541,4.826,153.749,3.478
				c4.541-0.202,7.51-4.852,5.83-9.075c-1.409-3.539-4.125-6.401-7.586-7.991l-139.057-63.911L1088.126,3166.61z"/>
			
				<linearGradient id="SVGID_00000082338680676327354470000006905846877077998725_" gradientUnits="userSpaceOnUse" x1="4154.2686" y1="3166.4866" x2="4199.5" y2="3166.4866" gradientTransform="matrix(1 0 0 1 -3070.4624 0)">
				<stop  offset="0" style="stop-color:#F9B776"/>
				<stop  offset="1" style="stop-color:#F47960"/>
			</linearGradient>
			<path style="fill:url(#SVGID_00000082338680676327354470000006905846877077998725_);" d="M1083.806,3149.068l4.237,35.71
				c0,0,24.359,11.34,40.995-1.429l-10.088-39.796L1083.806,3149.068z"/>
			
				<linearGradient id="SVGID_00000014608551472963449300000009045555227130898834_" gradientUnits="userSpaceOnUse" x1="4359.6514" y1="2498.9534" x2="3926.3499" y2="3086.2375" gradientTransform="matrix(1 0 0 1 -3070.4624 0)">
				<stop  offset="0" style="stop-color:#CB236D"/>
				<stop  offset="1" style="stop-color:#4C246D"/>
			</linearGradient>
			<path style="fill:url(#SVGID_00000014608551472963449300000009045555227130898834_);" d="M1086.99,2477.698
				c-1.83,9.325-9.824,465.37,38.924,669.739c0.796,3.335-0.895,6.772-4.069,8.069c-7.476,3.055-22.134,7.478-39.701,8.068
				c-5.44,0.183-10.317-3.353-11.852-8.575c-13.934-47.417-80.705-284.989-89.416-511.933c-9.733-253.589,0-8.635,0-8.635
				l5.709-156.753L1086.99,2477.698z"/>
			
				<linearGradient id="SVGID_00000021104246418622397950000005630560216897763253_" gradientUnits="userSpaceOnUse" x1="4205.3188" y1="3020.3245" x2="3696.094" y2="3574.2188" gradientTransform="matrix(1 0 0 1 -3070.4624 0)">
				<stop  offset="0" style="stop-color:#2B3582"/>
				<stop  offset="1" style="stop-color:#150E42"/>
			</linearGradient>
			<path style="fill:url(#SVGID_00000021104246418622397950000005630560216897763253_);" d="M928.164,3182.185
				c0,0-8.394,15.072-16.522,55.122c-1.467,7.233,3.586,14.156,10.931,14.877c12.995,1.278,33.001,2.922,49.026,2.811
				c7.388-0.051,13.153-6.483,12.263-13.817c-1.775-14.618-7.305-38.603-24.388-57.296L928.164,3182.185z"/>
			
				<linearGradient id="SVGID_00000079472995322558288130000005935769932982687123_" gradientUnits="userSpaceOnUse" x1="3991.2529" y1="3164.1672" x2="4030.3066" y2="3164.1672" gradientTransform="matrix(1 0 0 1 -3070.4624 0)">
				<stop  offset="0" style="stop-color:#F9B776"/>
				<stop  offset="1" style="stop-color:#F47960"/>
			</linearGradient>
			<path style="fill:url(#SVGID_00000079472995322558288130000005935769932982687123_);" d="M920.791,3136.253l9.901,54.004
				c0,0,9.789,7.282,29.153,2.003l-4.725-58.105L920.791,3136.253z"/>
			
				<linearGradient id="SVGID_00000026879683926742913430000018364399664293258912_" gradientUnits="userSpaceOnUse" x1="4282.4268" y1="2441.9763" x2="3849.1252" y2="3029.2605" gradientTransform="matrix(1 0 0 1 -3070.4624 0)">
				<stop  offset="0" style="stop-color:#CB236D"/>
				<stop  offset="1" style="stop-color:#4C246D"/>
			</linearGradient>
			<path style="fill:url(#SVGID_00000026879683926742913430000018364399664293258912_);" d="M894.046,2491.692
				c-39.869,240.613,8.648,594.695,25.011,663.997c1.002,4.243,4.426,7.494,8.727,8.207c7.304,1.21,19.329,2.198,31.184-1.245
				c4.084-1.186,6.954-4.87,7.121-9.121c2.195-56.029-1.756-399.991,35.393-535.927c1.882-6.889,6.089-12.897,11.91-17.035
				l72.103-51.26l5.528-82.856L894.046,2491.692z"/>
			<g>
				
					<linearGradient id="SVGID_00000178903794157942533370000018267471805287607457_" gradientUnits="userSpaceOnUse" x1="1115.4127" y1="2115.3132" x2="615.3981" y2="2797.1523">
					<stop  offset="0" style="stop-color:#FDF53F"/>
					<stop  offset="1" style="stop-color:#D93C65"/>
				</linearGradient>
				<path style="fill:url(#SVGID_00000178903794157942533370000018267471805287607457_);" d="M1148.092,2035.777
					c-119.48-1.974-251.313,31.372-251.313,31.372c-35.615,207.81-6.228,447.504-6.228,447.504
					c92.498,24.257,196.842-14.831,196.842-14.831c15.374-86.86,87.104-331.311,87.104-331.311
					c58.378-7.245,106.468-24.088,146.071-46.356c-30.208-35.016-44.449-79.572-50.635-105.91
					C1227.691,2029.374,1184.945,2036.386,1148.092,2035.777z"/>
				
					<linearGradient id="SVGID_00000176766188512852731360000015886388191133918082_" gradientUnits="userSpaceOnUse" x1="439.4371" y1="1717.21" x2="519.2427" y2="1945.2267" gradientTransform="matrix(-1 0 0 1 1904.8198 0)">
					<stop  offset="0" style="stop-color:#F9B776"/>
					<stop  offset="1" style="stop-color:#F47960"/>
				</linearGradient>
				<path style="fill:url(#SVGID_00000176766188512852731360000015886388191133918082_);" d="M1501.016,1859.789
					c-11.737-14.176-26.592-7.47-26.592-7.47c-17.583,74.271-109.774,134.491-204.489,163.926
					c6.185,26.338,20.427,70.894,50.635,105.91C1477.757,2033.775,1501.016,1859.789,1501.016,1859.789z"/>
			</g>
			<g>
				
					<linearGradient id="SVGID_00000030457293130796418080000005325263908192658835_" gradientUnits="userSpaceOnUse" x1="371.2262" y1="1741.0837" x2="451.0315" y2="1969.0996" gradientTransform="matrix(-1 0 0 1 1904.8198 0)">
					<stop  offset="0" style="stop-color:#F9B776"/>
					<stop  offset="1" style="stop-color:#F47960"/>
				</linearGradient>
				<path style="fill:url(#SVGID_00000030457293130796418080000005325263908192658835_);" d="M1498.167,1863.394
					c1.229,3.905-12.994,9.849-21.367-6.118c-0.293-7.653-4.947-40.439-0.374-46.673c24.355-33.204,71.575-74.828,71.575-74.828
					c7.981,7.874,1.406,15.61,1.406,15.61l-22.907,23.863c4.792,8.658,10.636,15.967,13.375,26.44
					c2.075,7.931,0.806,16.407-3.2,23.625c-4.021,7.244-9.507,16.661-14.693,24.03
					C1512.165,1863.289,1498.167,1863.394,1498.167,1863.394z"/>
				
					<linearGradient id="SVGID_00000134248773362769607660000007168575951784510106_" gradientUnits="userSpaceOnUse" x1="432.5342" y1="1886.7628" x2="372.4203" y2="1765.4984" gradientTransform="matrix(-1 0 0 1 1904.8198 0)">
					<stop  offset="0" style="stop-color:#F9B776"/>
					<stop  offset="1" style="stop-color:#F47960"/>
				</linearGradient>
				<path style="fill:url(#SVGID_00000134248773362769607660000007168575951784510106_);" d="M1516.481,1790.729l-20.875,17.696
					l-6.554,17.618l18.612,20.647c0,0,6.258-34.958,10.909-42.525C1523.224,1796.601,1520.812,1792.942,1516.481,1790.729z"/>
			</g>
			
				<linearGradient id="SVGID_00000088813629713630577190000013676681083194018471_" gradientUnits="userSpaceOnUse" x1="984.2805" y1="2019.1493" x2="484.2668" y2="2700.9873">
				<stop  offset="0" style="stop-color:#FDF53F"/>
				<stop  offset="1" style="stop-color:#D93C65"/>
			</linearGradient>
			<path style="fill:url(#SVGID_00000088813629713630577190000013676681083194018471_);" d="M942.607,2182.841l-45.828-115.692
				c0,0-111.601,75.828-129.955,171.97c21.087,1.553,59.459,7.038,97.017,26.003
				C872.096,2219.724,942.607,2182.841,942.607,2182.841z"/>
			
				<linearGradient id="SVGID_00000084528941634350894630000006216510756907346583_" gradientUnits="userSpaceOnUse" x1="3834.7432" y1="2313.7649" x2="4127.1787" y2="2313.7649" gradientTransform="matrix(1 0 0 1 -3070.4624 0)">
				<stop  offset="0" style="stop-color:#F9B776"/>
				<stop  offset="1" style="stop-color:#F47960"/>
			</linearGradient>
			<path style="fill:url(#SVGID_00000084528941634350894630000006216510756907346583_);" d="M1040.134,2291.703
				c0,0-125.3,70.813-167.578,10.347c-8.778-12.556-10.876-25.033-8.714-36.929c-37.559-18.965-75.93-24.45-97.017-26.003
				c-5.534,28.984-2.608,59.81,14.423,90.965c74.057,135.471,275.468-7.487,275.468-7.487L1040.134,2291.703z"/>
			<g>
				
					<linearGradient id="SVGID_00000003076420722277568700000001452156105646438016_" gradientUnits="userSpaceOnUse" x1="4223.1465" y1="2137.0823" x2="4383.9463" y2="2807.0833" gradientTransform="matrix(1 0 0 1 -3070.4624 0)">
					<stop  offset="0" style="stop-color:#2B3582"/>
					<stop  offset="0.2431" style="stop-color:#262C72"/>
					<stop  offset="1" style="stop-color:#150E42"/>
				</linearGradient>
				<path style="fill:url(#SVGID_00000003076420722277568700000001452156105646438016_);" d="M1025.079,2381.289l68.385-238.813
					c0.776-2.711,3.088-4.688,5.89-5.015c12.39-1.445,48.291-5.503,89.743-9.01c49.931-4.223,107.914-7.646,142.563-4.734
					c4.926,0.413,7.903,5.624,5.712,10.055c-19.704,39.863-100.752,202.016-141.338,255.135c-1.346,1.76-3.425,2.788-5.639,2.768
					l-158.662-1.476C1027.115,2390.157,1023.808,2385.728,1025.079,2381.289z"/>
				
					<linearGradient id="SVGID_00000164510775229708409970000001158339198652446136_" gradientUnits="userSpaceOnUse" x1="4316.3267" y1="2000.2422" x2="4282.0806" y2="2150.627" gradientTransform="matrix(1 0 0 1 -3070.4624 0)">
					<stop  offset="0" style="stop-color:#A737D5"/>
					<stop  offset="1" style="stop-color:#EF497A"/>
				</linearGradient>
				<path style="fill:url(#SVGID_00000164510775229708409970000001158339198652446136_);" d="M1196.19,2107.748l49.579-8.261
					c2.641-0.44,4.803,2.083,3.964,4.625l-4.908,14.873c-0.427,1.295-1.556,2.231-2.908,2.411l-47.711,6.374
					c-2.468,0.329-4.503-1.914-3.936-4.338l3.038-12.985C1193.636,2109.049,1194.773,2107.985,1196.19,2107.748z"/>
				
					<linearGradient id="SVGID_00000019645922098088480310000004434187095408719758_" gradientUnits="userSpaceOnUse" x1="4298.4043" y1="2063.324" x2="4282.0259" y2="2161.5955" gradientTransform="matrix(1 0 0 1 -3070.4624 0)">
					<stop  offset="0" style="stop-color:#A737D5"/>
					<stop  offset="1" style="stop-color:#EF497A"/>
				</linearGradient>
				<path style="fill:url(#SVGID_00000019645922098088480310000004434187095408719758_);" d="M1159.066,2149.722l4.084-21.275
					c0.41-2.134,2.172-3.746,4.333-3.965l100.14-10.162c3.371-0.342,6.069,2.747,5.279,6.041l-6.368,26.511
					c-0.509,2.121-2.355,3.653-4.535,3.762l-97.856,4.926C1160.958,2155.721,1158.465,2152.854,1159.066,2149.722z"/>
				
					<linearGradient id="SVGID_00000013890173492150866450000016405528992292966786_" gradientUnits="userSpaceOnUse" x1="4105.4668" y1="2283.1033" x2="4196.5718" y2="2283.1033" gradientTransform="matrix(1 0 0 1 -3070.4624 0)">
					<stop  offset="0" style="stop-color:#F9B776"/>
					<stop  offset="1" style="stop-color:#F47960"/>
				</linearGradient>
				<path style="fill:url(#SVGID_00000013890173492150866450000016405528992292966786_);" d="M1041.601,2323.593
					c0,0-9.526-39.171-5.684-53.067c3.843-13.897,11.288-31.765,36.103-27.794c24.816,3.97,54.089,14.425,54.089,14.425
					s-1.479,18.102-20.339,12.261l11.696,9.05c0,0-1.672,14.493-17.603,6.75l10.878,12.002c0,0-6.842,11.904-18.563,4.269
					C1080.459,2293.852,1074.84,2328.309,1041.601,2323.593z"/>
			</g>
			
				<linearGradient id="SVGID_00000023984989318854846800000001920034243119715766_" gradientUnits="userSpaceOnUse" x1="4059.2932" y1="2001.1337" x2="4174.9121" y2="2001.1337" gradientTransform="matrix(1 0 0 1 -3070.4624 0)">
				<stop  offset="0" style="stop-color:#F9B776"/>
				<stop  offset="1" style="stop-color:#F47960"/>
			</linearGradient>
			<path style="fill:url(#SVGID_00000023984989318854846800000001920034243119715766_);" d="M1027.069,1938.777l-38.017,109.942
				c-0.63,1.821,0.119,3.838,1.805,4.771c10.363,5.729,47.699,22.291,92.692-6.235c4.687-2.972,7.878-7.818,8.59-13.323
				l12.311-95.155H1027.069z"/>
			<g>
				
					<linearGradient id="SVGID_00000120535308000869141870000010500372592053630621_" gradientUnits="userSpaceOnUse" x1="-2507.8081" y1="1421.9862" x2="-2551.0137" y2="1279.4838" gradientTransform="matrix(0.746 -0.6659 0.6659 0.746 2055.873 -803.1727)">
					<stop  offset="0" style="stop-color:#F9B776"/>
					<stop  offset="1" style="stop-color:#F47960"/>
				</linearGradient>
				<path style="fill:url(#SVGID_00000120535308000869141870000010500372592053630621_);" d="M1109.788,1836.968
					c0,0,41.746,78.583,36.395,110.327c-5.351,31.743-57.089,29.464-102.269,3.683l-31.571-84.852L1109.788,1836.968z"/>
				
					<linearGradient id="SVGID_00000010279283119453118010000011195997650963431851_" gradientUnits="userSpaceOnUse" x1="-2546.7883" y1="1173.6965" x2="-2510.647" y2="1379.8359" gradientTransform="matrix(0.746 -0.6659 0.6659 0.746 2055.873 -803.1727)">
					<stop  offset="0" style="stop-color:#2B3582"/>
					<stop  offset="1" style="stop-color:#150E42"/>
				</linearGradient>
				<path style="fill:url(#SVGID_00000010279283119453118010000011195997650963431851_);" d="M1045.912,1909.307
					c1.836-0.813,2.513-3.06,1.414-4.74c-3.345-5.11-9.615-15.534-11.615-24.66c0,0-7.505-4.807,19.101-11.175
					c26.606-6.369,66.282-16.253,74.621-38.899c8.131-22.08-13.233-77.607-47.316-33.363c-1.297,1.683-3.837,1.72-5.132,0.035
					c-5.588-7.272-20.277-22.366-40.671-13.216c-19.085,8.563-21.235,22.548-20.972,29.598c0.077,2.073-1.777,3.685-3.816,3.297
					c-9.649-1.84-32.805-3.421-43.613,20.333c-8.903,19.566-3.116,30.642,2.153,36.059c1.708,1.755,0.96,4.645-1.382,5.361
					c-6.341,1.942-14.53,7.319-13.711,22.176c1.133,20.541,24.098,18.73,30.636,17.795c1.072-0.154,2.151,0.214,2.877,1.016
					c5.606,6.204,30.865,32.548,58.203,35.723c2.367,0.275,4.202-2.063,3.427-4.316l-11.831-34.392
					c-0.549-1.597,0.215-3.349,1.759-4.034L1045.912,1909.307z"/>
				
					<linearGradient id="SVGID_00000030445898112368137990000000152487148675654320_" gradientUnits="userSpaceOnUse" x1="-2551.9746" y1="1421.3225" x2="-2590.8474" y2="1293.1108" gradientTransform="matrix(0.746 -0.6659 0.6659 0.746 2055.873 -803.1727)">
					<stop  offset="0" style="stop-color:#F9B776"/>
					<stop  offset="1" style="stop-color:#F47960"/>
				</linearGradient>
				<path style="fill:url(#SVGID_00000030445898112368137990000000152487148675654320_);" d="M1050.667,1914.189
					c0,0-29.723-20.394-31.895-3.219c-2.171,17.173,26.767,24.876,41.1,18.473L1050.667,1914.189z"/>
			</g>
		</g>
		<g>
			
				<linearGradient id="SVGID_00000137820953495205388540000004202752510983155338_" gradientUnits="userSpaceOnUse" x1="-1109.8853" y1="940.0618" x2="-1410.4955" y2="1309.6198" gradientTransform="matrix(-0.9922 -0.1247 -0.1247 0.9922 1452.5493 715.4178)">
				<stop  offset="0" style="stop-color:#F9B776"/>
				<stop  offset="1" style="stop-color:#F47960"/>
			</linearGradient>
			<path style="fill:url(#SVGID_00000137820953495205388540000004202752510983155338_);" d="M2465.196,1891.191
				c1.957-3.741,7.493-3.152,8.623,0.917c4.184,15.059,14.31,41.337,35.558,50.668c1.07,0.47,2.084,0.945,3.064,1.424
				c0.964-2.889,0.977-6.244-1.331-9.771c-6.606-10.096,5.319-23.884,5.319-23.884s0.79,12.144,10.02,19.79
				c7.95,6.586,11.768,21.242,6.335,33.265c-11.5,44.668-28.72,103.746,38.358,146.906c67.078,43.16,161.542-81.454,161.542-81.454
				l-46.885,148.633c0,0-72.368,53.404-156.544-21.69c-84.176-75.094-28.383-184.365-28.383-184.365
				S2436.67,1945.731,2465.196,1891.191z"/>
			
				<linearGradient id="SVGID_00000050657496061833826000000006114076717858398592_" gradientUnits="userSpaceOnUse" x1="1269.8795" y1="621.6124" x2="1072.7551" y2="855.8428" gradientTransform="matrix(0.9602 0.2794 -0.2794 0.9602 2090.9536 797.6744)">
				<stop  offset="0" style="stop-color:#2B3582"/>
				<stop  offset="1" style="stop-color:#150E42"/>
			</linearGradient>
			<path style="fill:url(#SVGID_00000050657496061833826000000006114076717858398592_);" d="M2744.432,1810.666
				c0,0-19.434-87.172,80.42-64.096c0,0,48.47-7.921,50.935,37.828c0,0,31.243,20.587,8.368,60.179c0,0,92.854-35.865,133.31,45.522
				c40.457,81.387,3.269,126.17-35.715,137.834c0,0,31.584,15.859,16.634,51.667c-14.95,35.808-90.663,61.05-135.387,17.504
				c0,0-127.262,16.818-124.715-73.073c0,0-59.191-38.223,2.979-112.512C2803.429,1837.231,2744.432,1810.666,2744.432,1810.666z"/>
			
				<linearGradient id="SVGID_00000129166272863356813280000006542694106857529772_" gradientUnits="userSpaceOnUse" x1="-1113.4003" y1="734.8387" x2="-1499.7141" y2="1276.925" gradientTransform="matrix(-0.9922 -0.1247 -0.1247 0.9922 1452.5493 715.4178)">
				<stop  offset="0" style="stop-color:#53D8FF"/>
				<stop  offset="1" style="stop-color:#3840F7"/>
			</linearGradient>
			<path style="fill:url(#SVGID_00000129166272863356813280000006542694106857529772_);" d="M2738.948,2012.724
				c20.065-6.015,78.489-17.121,134.06,34.161c9.425,8.698,13.277,21.914,9.915,34.29c-14.926,54.95-54.307,217.299-19.776,287.544
				c0,0-60.85,67.079-127.236,13.015c0,0-29.785-129.815-68.798-186.803c-26.935-39.345,42.948-147.745,60.63-173.934
				C2730.42,2017.032,2734.366,2014.098,2738.948,2012.724z"/>
			
				<linearGradient id="SVGID_00000113337651349969691250000004426268295215925688_" gradientUnits="userSpaceOnUse" x1="984.4316" y1="1034.5785" x2="1000.4919" y2="920.5512" gradientTransform="matrix(0.9602 0.2794 -0.2794 0.9602 2090.9536 797.6744)">
				<stop  offset="0" style="stop-color:#F9B776"/>
				<stop  offset="1" style="stop-color:#F47960"/>
			</linearGradient>
			<path style="fill:url(#SVGID_00000113337651349969691250000004426268295215925688_);" d="M2794.351,1903.552
				c0,0,29.675,83.938,31.908,120.969c0,0-32.798,14.914-63.702-10.258c0,0-3.242-83.84-7.928-98.853L2794.351,1903.552z"/>
			
				<linearGradient id="SVGID_00000106129161327772000980000012365924664595115157_" gradientUnits="userSpaceOnUse" x1="910.8028" y1="790.2507" x2="1060.9689" y2="962.9015" gradientTransform="matrix(0.9602 0.2794 -0.2794 0.9602 2090.9536 797.6744)">
				<stop  offset="0" style="stop-color:#F9B776"/>
				<stop  offset="1" style="stop-color:#F47960"/>
			</linearGradient>
			<path style="fill:url(#SVGID_00000106129161327772000980000012365924664595115157_);" d="M2753.131,1789.105
				c0,0-77.617,108.621-31.22,140.171c46.397,31.55,101.65-45.641,101.65-45.641s18.01-59.453-0.822-79.62
				C2803.907,1783.845,2753.131,1789.105,2753.131,1789.105z"/>
			
				<linearGradient id="SVGID_00000019658652331177892500000010790546308564346547_" gradientUnits="userSpaceOnUse" x1="1175.467" y1="542.1591" x2="978.3384" y2="776.3945" gradientTransform="matrix(0.9602 0.2794 -0.2794 0.9602 2090.9536 797.6744)">
				<stop  offset="0" style="stop-color:#2B3582"/>
				<stop  offset="1" style="stop-color:#150E42"/>
			</linearGradient>
			<path style="fill:url(#SVGID_00000019658652331177892500000010790546308564346547_);" d="M2789.057,1763.147
				c0,0-35.657,8.449-40.654,24.582c-4.997,16.134,50.565,31.094,66.133,31.826l12.544,65.103c0,0,37.083-61.244,22.393-96.614
				C2834.785,1752.674,2789.057,1763.147,2789.057,1763.147z"/>
			
				<linearGradient id="SVGID_00000118378050286869570490000008399206976807144331_" gradientUnits="userSpaceOnUse" x1="948.3201" y1="757.6154" x2="1098.4855" y2="930.2653" gradientTransform="matrix(0.9602 0.2794 -0.2794 0.9602 2090.9536 797.6744)">
				<stop  offset="0" style="stop-color:#F9B776"/>
				<stop  offset="1" style="stop-color:#F47960"/>
			</linearGradient>
			<path style="fill:url(#SVGID_00000118378050286869570490000008399206976807144331_);" d="M2808.515,1875.642
				c0,0,30.211-34.988,42.228-12.178c12.016,22.81-27.193,39.935-40.766,28.736L2808.515,1875.642z"/>
			
				<linearGradient id="SVGID_00000101805403640867811060000016161310830118706857_" gradientUnits="userSpaceOnUse" x1="-1847.3533" y1="3299.239" x2="-1489.0903" y2="2666.8279" gradientTransform="matrix(-1 -0.0095 -0.0095 1 1196.4435 56.9446)">
				<stop  offset="0" style="stop-color:#F9B776"/>
				<stop  offset="1" style="stop-color:#F47960"/>
			</linearGradient>
			<path style="fill:url(#SVGID_00000101805403640867811060000016161310830118706857_);" d="M2658.414,2654.293
				c0.228,5.893-10.119,52.638-15.75,77.573c-2.266,10.032-0.688,20.532,4.42,29.458l195.019,328.226
				c2.359,3.97,4.076,8.271,5.12,12.77c3.574,15.403,10.987,53.152,7.116,87.493l-10.089,20.953l43.632-9.907l9.493-117.173
				l-12.352-7.532c-10.671-6.506-18.98-16.233-23.738-27.79c-17.634-42.835-61.425-151.871-72.713-205.01
				c-12.828-60.392-79.892-109.444-79.892-109.444l11.782-27.855L2658.414,2654.293z"/>
			
				<linearGradient id="SVGID_00000039115786441928929550000000053898308707546773_" gradientUnits="userSpaceOnUse" x1="-1769.2546" y1="3075.6455" x2="-1664.5334" y2="3075.6455" gradientTransform="matrix(-1 -0.0095 -0.0095 1 1196.4435 56.9446)">
				<stop  offset="0" style="stop-color:#2B3582"/>
				<stop  offset="1" style="stop-color:#150E42"/>
			</linearGradient>
			<path style="fill:url(#SVGID_00000039115786441928929550000000053898308707546773_);" d="M2936.374,3160.54
				c0,0-23.562-37.355-26.334-51.896c-2.772-14.541-10.489-40.218-25.016-32.488c0,0-6.846,70.636-4.486,98.236
				c2.36,27.6-31.201,26.713-31.201,26.713s-9.25,1.3-16.023,8.072c-4.677,4.677-1.333,12.79,5.267,13.215
				c10.982,0.708,28.427,0.893,46.744-2.646c6.402-1.238,11.147-6.684,11.535-13.193l4.835-81.296l29.721,37.529L2936.374,3160.54z"
				/>
			
				<linearGradient id="SVGID_00000122688244181824315800000004432910756028624281_" gradientUnits="userSpaceOnUse" x1="-1441.3538" y1="2831.3975" x2="-1977.149" y2="3002.7275" gradientTransform="matrix(-1 -0.0095 -0.0095 1 1196.4435 56.9446)">
				<stop  offset="0" style="stop-color:#F9B776"/>
				<stop  offset="1" style="stop-color:#F47960"/>
			</linearGradient>
			<path style="fill:url(#SVGID_00000122688244181824315800000004432910756028624281_);" d="M2774.916,2706.576
				c0,0,6.878,293.596,7.81,335.294c0.931,41.698-6.585,134.105-48.386,161.727l18.189,13.467c0,0,22.732-19.321,44.939-56.504
				c24.947-41.771,32.491-49.402,32.491-49.402l-8.279-16.953c-3.624-7.422-4.689-15.818-3.02-23.908
				c9.02-43.72,39.156-189.139,47.376-220.456c9.703-36.967,10.394-86.333-23.365-127.656
				C2808.913,2680.863,2774.916,2706.576,2774.916,2706.576z"/>
			
				<linearGradient id="SVGID_00000119107621378680289590000011135270316666876347_" gradientUnits="userSpaceOnUse" x1="-1672.1644" y1="3094.5591" x2="-1547.3267" y2="3094.5591" gradientTransform="matrix(-1 -0.0095 -0.0095 1 1196.4435 56.9446)">
				<stop  offset="0" style="stop-color:#2B3582"/>
				<stop  offset="1" style="stop-color:#150E42"/>
			</linearGradient>
			<path style="fill:url(#SVGID_00000119107621378680289590000011135270316666876347_);" d="M2813.516,3230.296
				c1.297,0.012,2.399-0.916,2.582-2.2c1.392-9.788,7.182-49.029,11.921-59.19c5.428-11.637,23.16-60.616-0.01-64.774
				c0,0-57.601,84.156-68.658,95.501c-11.058,11.347-25.012,3.964-25.012,3.964s-10.773,3.183-18.898,13.565
				c-3.866,4.941-0.265,12.195,6.01,12.255l38.798,0.37c11.268,0.107,21.402-6.738,25.591-17.198
				c6.829-17.058,18.561-42.078,32.234-53.178l-7.105,68.03C2810.811,3228.958,2811.992,3230.281,2813.516,3230.296z"/>
			
				<linearGradient id="SVGID_00000075133652622161067360000009487545477715522711_" gradientUnits="userSpaceOnUse" x1="-1501.7039" y1="2254.9773" x2="-1800.7764" y2="2921.6604" gradientTransform="matrix(-1 -0.0095 -0.0095 1 1196.4435 56.9446)">
				<stop  offset="0" style="stop-color:#2B3582"/>
				<stop  offset="1" style="stop-color:#150E42"/>
			</linearGradient>
			<path style="fill:url(#SVGID_00000075133652622161067360000009487545477715522711_);" d="M2726.728,2350.079
				c0,0,8.743,27.867-4.688,73.766l-83.321,290.961c-1.309,4.572,1.158,9.357,5.634,10.963
				c24.923,8.945,106.853,34.227,218.694,26.518c5.631-0.388,10.353-4.375,11.577-9.886c7.369-33.17,32.513-146.345,37.69-169.599
				c19.726-88.607,41.752-184.163-55.144-241.943C2812.514,2349.986,2770.864,2361.26,2726.728,2350.079z"/>
			
				<linearGradient id="SVGID_00000065769684183812290420000012295293981886025902_" gradientUnits="userSpaceOnUse" x1="-1723.3235" y1="1473.9849" x2="-1129.0077" y2="794.175" gradientTransform="matrix(-0.9922 -0.1247 -0.1247 0.9922 1452.5493 715.4178)">
				<stop  offset="0" style="stop-color:#F9B776"/>
				<stop  offset="1" style="stop-color:#F47960"/>
			</linearGradient>
			<path style="fill:url(#SVGID_00000065769684183812290420000012295293981886025902_);" d="M2880.959,2057.851
				c0,0,94.801,78.784,118.327,186.44c23.527,107.656-138.528,119.098-138.528,119.098s-22-24.566-48.118-15.805
				c-26.118,8.761-2.022-42.875,28.537-42.74c30.558,0.136,16.403,24.299,59.632,4.718c42.111-19.075,68.139-78.069-39.304-167.494
				c-6.228-5.184-11.198-11.792-14.19-19.323C2826.441,2070.201,2842.997,2035.758,2880.959,2057.851z"/>
		</g>
	</g>
</g>
</svg>
