<svg width="355" height="154" viewBox="0 0 355 154" fill="none" xmlns="http://www.w3.org/2000/svg">
<path d="M66.688 98.832C66.688 102.843 65.7493 106.299 63.872 109.2C62.08 112.016 59.0933 114.619 54.912 117.008C52.096 118.715 48.8107 119.995 45.056 120.848C41.3013 121.701 37.504 122.128 33.664 122.128C29.7387 122.128 24.8747 120.848 19.072 118.288C14.8907 116.24 11.5627 113.808 9.088 110.992C6.69867 108.176 5.504 105.104 5.504 101.776C5.504 99.472 6.016 97.808 7.04 96.784C8.064 95.6747 9.728 95.12 12.032 95.12C13.2267 95.12 14.464 95.632 15.744 96.656C17.024 97.5947 17.792 98.5333 18.048 99.472C19.2427 102.971 21.3333 105.659 24.32 107.536C27.3067 109.328 31.0187 110.224 35.456 110.224C40.576 110.224 44.8427 109.285 48.256 107.408C51.7547 105.531 53.504 103.013 53.504 99.856C53.504 96.784 51.6267 94.0533 47.872 91.664C44.1173 89.2747 40.2773 87.6107 36.352 86.672C30.72 85.136 25.728 83.3013 21.376 81.168C16.8533 78.9493 13.4827 76.2187 11.264 72.976C9.04533 69.7333 7.936 66.32 7.936 62.736C7.936 59.408 9.088 56.0373 11.392 52.624C13.696 49.1253 16.4267 46.608 19.584 45.072C21.2907 44.2187 24.192 43.3227 28.288 42.384C32.4693 41.36 35.4987 40.848 37.376 40.848C39.8507 40.848 42.5813 41.1467 45.568 41.744C48.5547 42.3413 50.9867 43.1947 52.864 44.304C56.6187 46.4373 59.392 48.3573 61.184 50.064C62.976 51.7707 63.872 53.904 63.872 56.464C63.872 58 63.2747 59.3653 62.08 60.56C60.9707 61.7547 59.008 62.352 56.192 62.352C55.5093 62.352 54.8267 62.0533 54.144 61.456C53.4613 60.8587 52.608 59.9627 51.584 58.768C50.2187 56.976 48.896 55.7813 47.616 55.184C46.336 54.7573 44.4587 54.288 41.984 53.776C39.5947 53.264 37.4613 53.008 35.584 53.008C33.536 53.008 31.4027 53.4347 29.184 54.288C26.9653 55.1413 25.088 56.3787 23.552 58C22.1013 59.536 21.376 61.328 21.376 63.376C21.376 65.0827 22.144 66.576 23.68 67.856C25.3013 69.0507 27.2213 70.032 29.44 70.8C32 71.824 34.7733 72.72 37.76 73.488C41.6853 74.6827 44.8853 75.792 47.36 76.816C49.92 77.7547 52.3947 78.9493 54.784 80.4C58.9653 82.8747 61.9947 85.4347 63.872 88.08C65.7493 90.64 66.688 94.224 66.688 98.832ZM101.699 51.344C101.443 56.8053 101.315 62.0533 101.315 67.088C101.315 72.2933 101.656 79.9307 102.339 90C102.424 91.536 102.595 94.6507 102.851 99.344C103.107 103.952 103.235 108.176 103.235 112.016C104.088 111.931 104.984 111.803 105.923 111.632C106.947 111.461 107.715 111.376 108.227 111.376C110.104 111.376 111.598 111.845 112.707 112.784C113.816 113.723 114.371 115.173 114.371 117.136C114.371 118.416 113.859 119.397 112.835 120.08C111.811 120.763 110.019 121.275 107.459 121.616C104.984 121.872 101.358 122 96.579 122C91.2883 122 87.3203 121.829 84.675 121.488C82.0297 121.147 80.195 120.507 79.171 119.568C78.147 118.544 77.635 117.051 77.635 115.088C77.635 113.637 78.1043 112.656 79.043 112.144C79.9817 111.632 81.3043 111.376 83.011 111.376L85.699 111.504L89.923 111.76L89.283 96.656C88.771 88.464 88.515 80.9547 88.515 74.128C88.515 70.4587 88.643 65.424 88.899 59.024L89.155 51.984C86.2537 52.1547 83.9923 52.24 82.371 52.24C80.4937 52.24 79.2137 51.8987 78.531 51.216C77.9337 50.5333 77.635 49.1253 77.635 46.992C77.635 44.6027 79.2563 43.0667 82.499 42.384C85.827 41.7013 90.8617 41.36 97.603 41.36C102.808 41.36 106.691 41.5307 109.251 41.872C111.896 42.2133 113.219 42.9813 113.219 44.176C113.219 47.0773 112.579 48.9973 111.299 49.936C110.104 50.7893 107.758 51.216 104.259 51.216L101.699 51.344ZM135.369 40.72C136.99 40.72 138.441 41.1467 139.721 42C141.086 42.8533 141.897 44.3467 142.153 46.48C143.177 53.2213 143.817 59.9627 144.073 66.704C144.414 73.36 144.585 80.912 144.585 89.36C144.585 92.944 144.286 99.472 143.689 108.944C147.444 109.285 150.345 109.456 152.393 109.456C153.844 109.456 157.129 109.243 162.249 108.816C165.236 108.389 167.838 108.176 170.057 108.176C172.105 108.176 173.982 108.389 175.689 108.816C177.396 109.157 179.145 109.755 180.937 110.608C182.729 111.632 183.625 113.211 183.625 115.344C183.625 117.051 183.07 118.587 181.961 119.952C180.937 121.317 179.7 122 178.249 122C177.225 122 175.604 121.829 173.385 121.488C169.374 120.891 165.534 120.592 161.865 120.592C160.67 120.592 159.305 120.677 157.769 120.848C156.318 120.933 155.252 120.976 154.569 120.976C152.521 121.232 150.473 121.36 148.425 121.36C144.244 121.36 140.489 121.147 137.161 120.72C135.454 120.549 133.748 119.909 132.041 118.8C130.334 117.605 129.481 115.899 129.481 113.68C129.481 112.4 129.652 109.115 129.993 103.824C130.59 95.0347 130.889 88.336 130.889 83.728C130.889 80.144 130.718 76.3893 130.377 72.464C130.036 68.5387 129.822 66.064 129.737 65.04C128.969 57.7867 128.585 51.8133 128.585 47.12C128.585 44.9013 129.097 43.28 130.121 42.256C131.23 41.232 132.98 40.72 135.369 40.72ZM330.916 78.864C337.06 79.7173 341.668 81.9787 344.74 85.648C347.812 89.232 349.348 93.456 349.348 98.32C349.348 103.099 347.769 107.408 344.612 111.248C341.54 115.088 337.572 117.733 332.708 119.184C330.233 120.123 326.521 120.891 321.572 121.488C316.708 122 312.313 122.256 308.388 122.256C301.561 122.256 294.564 121.616 287.396 120.336C286.116 120.08 284.751 119.44 283.3 118.416C281.935 117.392 281.252 115.899 281.252 113.936C281.167 110.267 281.209 105.147 281.38 98.576C281.551 93.6267 281.636 89.9573 281.636 87.568C281.636 84.752 281.593 82.6187 281.508 81.168C281.508 78.864 281.423 75.3227 281.252 70.544C280.996 65.424 280.868 60.176 280.868 54.8C278.905 53.0933 277.924 51.0453 277.924 48.656C277.924 46.864 278.692 45.4133 280.228 44.304C281.849 43.1093 283.769 42.4267 285.988 42.256L290.852 41.872C300.495 40.9333 306.937 40.464 310.18 40.464C316.153 40.464 321.657 41.2747 326.692 42.896C331.812 44.432 336.036 46.864 339.364 50.192C340.559 51.5573 341.54 53.3067 342.308 55.44C343.076 57.488 343.46 59.4933 343.46 61.456C343.545 65.552 342.479 69.2213 340.26 72.464C338.041 75.6213 334.927 77.7547 330.916 78.864ZM310.948 51.344C308.047 51.344 305.017 51.5147 301.86 51.856C298.788 52.1973 296.185 52.624 294.052 53.136L294.82 75.536L299.428 75.408L301.732 75.28L306.852 75.408C309.241 75.5787 310.948 75.664 311.972 75.664C312.996 75.664 314.276 75.5787 315.812 75.408C325.113 73.4453 329.764 69.5627 329.764 63.76C329.764 62.48 329.508 61.2 328.996 59.92C328.484 58.5547 327.929 57.5733 327.332 56.976C325.028 54.7573 322.681 53.264 320.292 52.496C317.903 51.728 314.788 51.344 310.948 51.344ZM294.564 110.48C296.271 110.736 298.66 110.949 301.732 111.12C304.889 111.291 307.62 111.376 309.924 111.376C316.836 111.376 322.639 110.267 327.332 108.048C332.025 105.829 334.372 102.544 334.372 98.192C334.372 96.4 333.647 94.5653 332.196 92.688C330.745 90.8107 328.825 89.2747 326.436 88.08C324.047 86.8853 321.529 86.288 318.884 86.288L311.844 86.416C307.407 86.5867 303.951 86.672 301.476 86.672C299.513 86.672 297.423 86.5867 295.204 86.416C295.119 91.3653 294.905 99.3867 294.564 110.48Z" fill="#07689F"/>
<path d="M222.365 102.038L221.396 104.161H223.73H253.516H255.948L254.857 101.988L232.193 56.8639L230.837 54.1651L229.506 56.876L201.014 114.893L199.953 117.054H202.361H259.992H262.326L261.356 114.931L258.119 107.84L257.718 106.963H256.754H215.781L230.884 76.3367L240.045 94.0702H226.967H226.003L225.603 94.9472L222.365 102.038ZM212.024 107.799L210.957 109.963H213.369H255.79L257.658 114.054H204.768L230.868 60.9093L251.084 101.161H226.063L227.931 97.0702H242.508H244.971L243.841 94.8818L232.185 72.3198L230.821 69.6799L229.507 72.3449L212.024 107.799ZM194.423 120.5L230.874 47.3203L268.541 120.5H194.423Z" stroke="#07689F" stroke-width="3"/>
</svg>
